<mxfile host="65bd71144e">
    <diagram id="lx93sr9308JyKBKyqI4k" name="Page-1">
        <mxGraphModel dx="579" dy="516" grid="1" gridSize="10" guides="1" tooltips="1" connect="1" arrows="1" fold="1" page="1" pageScale="1" pageWidth="11000" pageHeight="11000" math="0" shadow="0">
            <root>
                <mxCell id="0"/>
                <mxCell id="1" parent="0"/>
                <mxCell id="2" value="User" style="whiteSpace=wrap;html=1;align=center;fillColor=#d80073;fontColor=#ffffff;strokeColor=#A50040;" parent="1" vertex="1">
                    <mxGeometry x="1080" y="230" width="100" height="40" as="geometry"/>
                </mxCell>
                <mxCell id="3" value="Flight" style="whiteSpace=wrap;html=1;align=center;fillColor=#1ba1e2;fontColor=#ffffff;strokeColor=#006EAF;" parent="1" vertex="1">
                    <mxGeometry x="1070" y="480" width="100" height="40" as="geometry"/>
                </mxCell>
                <mxCell id="4" value="Hotel" style="whiteSpace=wrap;html=1;align=center;fillColor=#fff2cc;strokeColor=#d6b656;" parent="1" vertex="1">
                    <mxGeometry x="980" y="810" width="100" height="40" as="geometry"/>
                </mxCell>
                <mxCell id="5" value="Room" style="whiteSpace=wrap;html=1;align=center;fillColor=#f8cecc;strokeColor=#b85450;" parent="1" vertex="1">
                    <mxGeometry x="730" y="750" width="100" height="40" as="geometry"/>
                </mxCell>
                <mxCell id="6" value="Payment" style="whiteSpace=wrap;html=1;align=center;fillColor=#cdeb8b;strokeColor=#36393d;" parent="1" vertex="1">
                    <mxGeometry x="706.25" y="231.34" width="100" height="40" as="geometry"/>
                </mxCell>
                <mxCell id="7" value="Booking " style="whiteSpace=wrap;html=1;align=center;fillColor=#647687;fontColor=#ffffff;strokeColor=#314354;" parent="1" vertex="1">
                    <mxGeometry x="950" y="390" width="100" height="40" as="geometry"/>
                </mxCell>
                <mxCell id="8" value="Booking_Item " style="whiteSpace=wrap;html=1;align=center;fillColor=#d5e8d4;strokeColor=#82b366;" parent="1" vertex="1">
                    <mxGeometry x="620" y="530" width="100" height="40" as="geometry"/>
                </mxCell>
                <mxCell id="9" value="Discount  " style="whiteSpace=wrap;html=1;align=center;fillColor=#ffcc99;strokeColor=#36393d;" parent="1" vertex="1">
                    <mxGeometry x="258.75" y="343.79" width="100" height="40" as="geometry"/>
                </mxCell>
                <mxCell id="10" value="Review   " style="whiteSpace=wrap;html=1;align=center;fillColor=#6d8764;fontColor=#ffffff;strokeColor=#3A5431;" parent="1" vertex="1">
                    <mxGeometry x="1530" y="235.09" width="100" height="40" as="geometry"/>
                </mxCell>
                <mxCell id="322" value="" style="edgeStyle=none;html=1;" parent="1" source="12" target="14" edge="1">
                    <mxGeometry relative="1" as="geometry"/>
                </mxCell>
                <mxCell id="12" value="City    " style="whiteSpace=wrap;html=1;align=center;fillColor=#76608a;fontColor=#ffffff;strokeColor=#432D57;" parent="1" vertex="1">
                    <mxGeometry x="1330" y="730" width="100" height="40" as="geometry"/>
                </mxCell>
                <mxCell id="13" value="Transport_Company    " style="whiteSpace=wrap;html=1;align=center;fillColor=#0050ef;fontColor=#ffffff;strokeColor=#001DBC;" parent="1" vertex="1">
                    <mxGeometry x="1320" y="495" width="125" height="50" as="geometry"/>
                </mxCell>
                <mxCell id="14" value="Hotel Amenity    " style="whiteSpace=wrap;html=1;align=center;fillColor=#ffe6cc;strokeColor=#d79b00;" parent="1" vertex="1">
                    <mxGeometry x="1330" y="880" width="125" height="50" as="geometry"/>
                </mxCell>
                <mxCell id="16" value="Seat     " style="whiteSpace=wrap;html=1;align=center;fillColor=#cce5ff;strokeColor=#36393d;" parent="1" vertex="1">
                    <mxGeometry x="1090" y="650" width="125" height="50" as="geometry"/>
                </mxCell>
                <mxCell id="17" value="Notification     " style="whiteSpace=wrap;html=1;align=center;fillColor=#e3c800;fontColor=#000000;strokeColor=#B09500;" parent="1" vertex="1">
                    <mxGeometry x="1230" y="380" width="125" height="50" as="geometry"/>
                </mxCell>
                <mxCell id="19" value="makes" style="shape=rhombus;perimeter=rhombusPerimeter;whiteSpace=wrap;html=1;align=center;rotation=0;" parent="1" vertex="1">
                    <mxGeometry x="877.5" y="224.99999999999997" width="80" height="40" as="geometry"/>
                </mxCell>
                <mxCell id="24" value="" style="endArrow=none;html=1;rounded=0;exitX=1;exitY=0.5;exitDx=0;exitDy=0;entryX=0;entryY=1;entryDx=0;entryDy=0;" parent="1" source="19" target="2" edge="1">
                    <mxGeometry relative="1" as="geometry">
                        <mxPoint x="1050" y="420" as="sourcePoint"/>
                        <mxPoint x="1210" y="420" as="targetPoint"/>
                    </mxGeometry>
                </mxCell>
                <mxCell id="25" value="" style="endArrow=none;html=1;rounded=0;exitX=1;exitY=0;exitDx=0;exitDy=0;entryX=0;entryY=0.5;entryDx=0;entryDy=0;" parent="1" source="6" target="19" edge="1">
                    <mxGeometry relative="1" as="geometry">
                        <mxPoint x="908.25" y="180.34" as="sourcePoint"/>
                        <mxPoint x="849.9976885185333" y="206.904730469628" as="targetPoint"/>
                    </mxGeometry>
                </mxCell>
                <mxCell id="27" value="makes" style="shape=rhombus;perimeter=rhombusPerimeter;whiteSpace=wrap;html=1;align=center;rotation=-60;" parent="1" vertex="1">
                    <mxGeometry x="1050" y="320" width="80" height="40" as="geometry"/>
                </mxCell>
                <mxCell id="28" value="" style="endArrow=none;html=1;rounded=0;entryX=0.5;entryY=1;entryDx=0;entryDy=0;" parent="1" source="27" target="2" edge="1">
                    <mxGeometry relative="1" as="geometry">
                        <mxPoint x="966" y="302" as="sourcePoint"/>
                        <mxPoint x="1090" y="280" as="targetPoint"/>
                        <Array as="points">
                            <mxPoint x="1120" y="290"/>
                        </Array>
                    </mxGeometry>
                </mxCell>
                <mxCell id="29" value="" style="endArrow=none;html=1;rounded=0;entryX=0;entryY=0.5;entryDx=0;entryDy=0;exitX=1;exitY=0;exitDx=0;exitDy=0;" parent="1" source="7" target="27" edge="1">
                    <mxGeometry relative="1" as="geometry">
                        <mxPoint x="1120" y="316" as="sourcePoint"/>
                        <mxPoint x="1140" y="280" as="targetPoint"/>
                    </mxGeometry>
                </mxCell>
                <mxCell id="30" value="sends to" style="shape=rhombus;perimeter=rhombusPerimeter;whiteSpace=wrap;html=1;align=center;rotation=45;" parent="1" vertex="1">
                    <mxGeometry x="1190" y="300" width="80" height="40" as="geometry"/>
                </mxCell>
                <mxCell id="31" value="" style="endArrow=none;html=1;rounded=0;entryX=1;entryY=1;entryDx=0;entryDy=0;exitX=0;exitY=0.5;exitDx=0;exitDy=0;" parent="1" source="30" target="2" edge="1">
                    <mxGeometry relative="1" as="geometry">
                        <mxPoint x="1120" y="317" as="sourcePoint"/>
                        <mxPoint x="1140" y="280" as="targetPoint"/>
                        <Array as="points"/>
                    </mxGeometry>
                </mxCell>
                <mxCell id="32" value="" style="endArrow=none;html=1;rounded=0;entryX=1;entryY=0.5;entryDx=0;entryDy=0;exitX=0.5;exitY=0;exitDx=0;exitDy=0;" parent="1" source="17" target="30" edge="1">
                    <mxGeometry relative="1" as="geometry">
                        <mxPoint x="1202" y="312" as="sourcePoint"/>
                        <mxPoint x="1190" y="280" as="targetPoint"/>
                        <Array as="points"/>
                    </mxGeometry>
                </mxCell>
                <mxCell id="33" value="Customer" style="whiteSpace=wrap;html=1;align=center;fillColor=#e51400;fontColor=#ffffff;strokeColor=#B20000;" parent="1" vertex="1">
                    <mxGeometry x="1510" y="120" width="125" height="50" as="geometry"/>
                </mxCell>
                <mxCell id="34" value="" style="endArrow=none;html=1;rounded=0;entryX=1;entryY=0;entryDx=0;entryDy=0;exitX=0;exitY=0.5;exitDx=0;exitDy=0;" parent="1" source="35" target="2" edge="1">
                    <mxGeometry relative="1" as="geometry">
                        <mxPoint x="1300" y="230" as="sourcePoint"/>
                        <mxPoint x="1140" y="280" as="targetPoint"/>
                        <Array as="points"/>
                    </mxGeometry>
                </mxCell>
                <mxCell id="35" value="has" style="shape=rhombus;perimeter=rhombusPerimeter;whiteSpace=wrap;html=1;align=center;rotation=-15;" parent="1" vertex="1">
                    <mxGeometry x="1310" y="173.75" width="80" height="40" as="geometry"/>
                </mxCell>
                <mxCell id="36" value="" style="endArrow=none;html=1;rounded=0;entryX=1;entryY=0.5;entryDx=0;entryDy=0;exitX=0;exitY=0;exitDx=0;exitDy=0;" parent="1" source="33" target="35" edge="1">
                    <mxGeometry relative="1" as="geometry">
                        <mxPoint x="1330" y="240" as="sourcePoint"/>
                        <mxPoint x="1190" y="240" as="targetPoint"/>
                        <Array as="points"/>
                    </mxGeometry>
                </mxCell>
                <mxCell id="37" value="1" style="text;html=1;align=center;verticalAlign=middle;whiteSpace=wrap;rounded=0;" parent="1" vertex="1">
                    <mxGeometry x="1160" y="205" width="60" height="30" as="geometry"/>
                </mxCell>
                <mxCell id="38" value="1" style="text;html=1;align=center;verticalAlign=middle;whiteSpace=wrap;rounded=0;" parent="1" vertex="1">
                    <mxGeometry x="1455" y="100" width="60" height="30" as="geometry"/>
                </mxCell>
                <mxCell id="39" value="1" style="text;html=1;align=center;verticalAlign=middle;whiteSpace=wrap;rounded=0;" parent="1" vertex="1">
                    <mxGeometry x="1170" y="258.65999999999997" width="60" height="30" as="geometry"/>
                </mxCell>
                <mxCell id="40" value="n" style="text;html=1;align=center;verticalAlign=middle;whiteSpace=wrap;rounded=0;" parent="1" vertex="1">
                    <mxGeometry x="1275" y="360" width="45" height="22.5" as="geometry"/>
                </mxCell>
                <mxCell id="41" value="n" style="text;html=1;align=center;verticalAlign=middle;whiteSpace=wrap;rounded=0;" parent="1" vertex="1">
                    <mxGeometry x="1026.25" y="367.5" width="40" height="20" as="geometry"/>
                </mxCell>
                <mxCell id="44" value="1" style="text;html=1;align=center;verticalAlign=middle;whiteSpace=wrap;rounded=0;" parent="1" vertex="1">
                    <mxGeometry x="1103.4299999999998" y="270" width="33.13" height="16.56" as="geometry"/>
                </mxCell>
                <mxCell id="45" value="1" style="text;html=1;align=center;verticalAlign=middle;whiteSpace=wrap;rounded=0;" parent="1" vertex="1">
                    <mxGeometry x="1040" y="250" width="60" height="30" as="geometry"/>
                </mxCell>
                <mxCell id="46" value="n" style="text;html=1;align=center;verticalAlign=middle;whiteSpace=wrap;rounded=0;" parent="1" vertex="1">
                    <mxGeometry x="793.75" y="207.59" width="60" height="30" as="geometry"/>
                </mxCell>
                <mxCell id="47" value="Writes" style="shape=rhombus;perimeter=rhombusPerimeter;whiteSpace=wrap;html=1;align=center;rotation=0;" parent="1" vertex="1">
                    <mxGeometry x="1320" y="218.66000000000003" width="80" height="40" as="geometry"/>
                </mxCell>
                <mxCell id="48" value="" style="endArrow=none;html=1;rounded=0;entryX=1;entryY=0.25;entryDx=0;entryDy=0;exitX=0;exitY=0.5;exitDx=0;exitDy=0;" parent="1" source="47" target="2" edge="1">
                    <mxGeometry relative="1" as="geometry">
                        <mxPoint x="1330" y="240" as="sourcePoint"/>
                        <mxPoint x="1190" y="240" as="targetPoint"/>
                        <Array as="points"/>
                    </mxGeometry>
                </mxCell>
                <mxCell id="49" value="" style="endArrow=none;html=1;rounded=0;entryX=1;entryY=0.5;entryDx=0;entryDy=0;exitX=0;exitY=0;exitDx=0;exitDy=0;" parent="1" source="10" target="47" edge="1">
                    <mxGeometry relative="1" as="geometry">
                        <mxPoint x="1382" y="302" as="sourcePoint"/>
                        <mxPoint x="1190" y="250" as="targetPoint"/>
                        <Array as="points"/>
                    </mxGeometry>
                </mxCell>
                <mxCell id="50" value="n" style="text;html=1;align=center;verticalAlign=middle;whiteSpace=wrap;rounded=0;" parent="1" vertex="1">
                    <mxGeometry x="1510" y="205.09" width="60" height="30" as="geometry"/>
                </mxCell>
                <mxCell id="55" value="1" style="text;html=1;align=center;verticalAlign=middle;whiteSpace=wrap;rounded=0;" parent="1" vertex="1">
                    <mxGeometry x="1190" y="218.66" width="60" height="30" as="geometry"/>
                </mxCell>
                <mxCell id="56" value="purchases" style="shape=rhombus;perimeter=rhombusPerimeter;whiteSpace=wrap;html=1;align=center;rotation=-75;" parent="1" vertex="1">
                    <mxGeometry x="1080" y="380" width="80" height="40" as="geometry"/>
                </mxCell>
                <mxCell id="59" value="" style="endArrow=none;html=1;rounded=0;entryX=0.75;entryY=1;entryDx=0;entryDy=0;exitX=1;exitY=0.5;exitDx=0;exitDy=0;" parent="1" source="56" target="2" edge="1">
                    <mxGeometry relative="1" as="geometry">
                        <mxPoint x="1060" y="400" as="sourcePoint"/>
                        <mxPoint x="1080" y="385" as="targetPoint"/>
                    </mxGeometry>
                </mxCell>
                <mxCell id="60" value="" style="endArrow=none;html=1;rounded=0;entryX=0;entryY=0.5;entryDx=0;entryDy=0;exitX=0.25;exitY=0;exitDx=0;exitDy=0;" parent="1" source="3" target="56" edge="1">
                    <mxGeometry relative="1" as="geometry">
                        <mxPoint x="1170" y="375" as="sourcePoint"/>
                        <mxPoint x="1165" y="280" as="targetPoint"/>
                    </mxGeometry>
                </mxCell>
                <mxCell id="61" value="1" style="text;html=1;align=center;verticalAlign=middle;whiteSpace=wrap;rounded=0;" parent="1" vertex="1">
                    <mxGeometry x="1130" y="270" width="60" height="30" as="geometry"/>
                </mxCell>
                <mxCell id="62" value="n" style="text;html=1;align=center;verticalAlign=middle;whiteSpace=wrap;rounded=0;" parent="1" vertex="1">
                    <mxGeometry x="1050" y="450" width="60" height="30" as="geometry"/>
                </mxCell>
                <mxCell id="65" value="provides" style="shape=rhombus;perimeter=rhombusPerimeter;whiteSpace=wrap;html=1;align=center;rotation=3;" parent="1" vertex="1">
                    <mxGeometry x="1210" y="470" width="80" height="40" as="geometry"/>
                </mxCell>
                <mxCell id="66" value="" style="endArrow=none;html=1;rounded=0;exitX=0;exitY=0.5;exitDx=0;exitDy=0;entryX=0.5;entryY=1;entryDx=0;entryDy=0;" parent="1" source="65" target="68" edge="1">
                    <mxGeometry relative="1" as="geometry">
                        <mxPoint x="1135" y="680" as="sourcePoint"/>
                        <mxPoint x="1070" y="530" as="targetPoint"/>
                        <Array as="points"/>
                    </mxGeometry>
                </mxCell>
                <mxCell id="68" value="n" style="text;html=1;align=center;verticalAlign=middle;whiteSpace=wrap;rounded=0;" parent="1" vertex="1">
                    <mxGeometry x="1140" y="450" width="60" height="30" as="geometry"/>
                </mxCell>
                <mxCell id="69" value="1" style="text;html=1;align=center;verticalAlign=middle;whiteSpace=wrap;rounded=0;" parent="1" vertex="1">
                    <mxGeometry x="1290" y="462.5" width="60" height="30" as="geometry"/>
                </mxCell>
                <mxCell id="70" value="has" style="shape=rhombus;perimeter=rhombusPerimeter;whiteSpace=wrap;html=1;align=center;rotation=90;fillColor=#fa6800;strokeColor=#C73500;fontColor=#000000;" parent="1" vertex="1">
                    <mxGeometry x="1080" y="570" width="80" height="40" as="geometry"/>
                </mxCell>
                <mxCell id="72" value="" style="endArrow=none;html=1;rounded=0;exitX=0;exitY=0.5;exitDx=0;exitDy=0;entryX=0.5;entryY=1;entryDx=0;entryDy=0;" parent="1" source="70" target="3" edge="1">
                    <mxGeometry relative="1" as="geometry">
                        <mxPoint x="1053" y="557" as="sourcePoint"/>
                        <mxPoint x="1080" y="530" as="targetPoint"/>
                        <Array as="points"/>
                    </mxGeometry>
                </mxCell>
                <mxCell id="73" value="" style="endArrow=none;html=1;rounded=0;exitX=0.25;exitY=0;exitDx=0;exitDy=0;entryX=1;entryY=0.5;entryDx=0;entryDy=0;" parent="1" source="16" target="70" edge="1">
                    <mxGeometry relative="1" as="geometry">
                        <mxPoint x="1182" y="552" as="sourcePoint"/>
                        <mxPoint x="1180" y="530" as="targetPoint"/>
                        <Array as="points"/>
                    </mxGeometry>
                </mxCell>
                <mxCell id="74" value="n" style="text;html=1;align=center;verticalAlign=middle;whiteSpace=wrap;rounded=0;" parent="1" vertex="1">
                    <mxGeometry x="1100" y="620" width="60" height="30" as="geometry"/>
                </mxCell>
                <mxCell id="75" value="1" style="text;html=1;align=center;verticalAlign=middle;whiteSpace=wrap;rounded=0;" parent="1" vertex="1">
                    <mxGeometry x="1100" y="520" width="60" height="30" as="geometry"/>
                </mxCell>
                <mxCell id="76" value="makes" style="shape=rhombus;perimeter=rhombusPerimeter;whiteSpace=wrap;html=1;align=center;rotation=30;" parent="1" vertex="1">
                    <mxGeometry x="850" y="332.5" width="70" height="35" as="geometry"/>
                </mxCell>
                <mxCell id="77" value="" style="endArrow=none;html=1;rounded=0;exitX=1;exitY=1;exitDx=0;exitDy=0;entryX=0;entryY=0.5;entryDx=0;entryDy=0;" parent="1" source="6" target="76" edge="1">
                    <mxGeometry relative="1" as="geometry">
                        <mxPoint x="816.25" y="241.34" as="sourcePoint"/>
                        <mxPoint x="826.25" y="268.84000000000003" as="targetPoint"/>
                    </mxGeometry>
                </mxCell>
                <mxCell id="78" value="" style="endArrow=none;html=1;rounded=0;exitX=1;exitY=0.5;exitDx=0;exitDy=0;entryX=0;entryY=0;entryDx=0;entryDy=0;" parent="1" source="76" target="7" edge="1">
                    <mxGeometry relative="1" as="geometry">
                        <mxPoint x="850" y="400" as="sourcePoint"/>
                        <mxPoint x="870" y="408" as="targetPoint"/>
                    </mxGeometry>
                </mxCell>
                <mxCell id="79" value="1" style="text;html=1;align=center;verticalAlign=middle;whiteSpace=wrap;rounded=0;" parent="1" vertex="1">
                    <mxGeometry x="920" y="367.5" width="60" height="30" as="geometry"/>
                </mxCell>
                <mxCell id="80" value="1" style="text;html=1;align=center;verticalAlign=middle;whiteSpace=wrap;rounded=0;" parent="1" vertex="1">
                    <mxGeometry x="790" y="256.34000000000003" width="60" height="30" as="geometry"/>
                </mxCell>
                <mxCell id="83" value="contains" style="shape=rhombus;perimeter=rhombusPerimeter;whiteSpace=wrap;html=1;align=center;rotation=-40;" parent="1" vertex="1">
                    <mxGeometry x="850" y="470" width="70" height="35" as="geometry"/>
                </mxCell>
                <mxCell id="85" value="" style="endArrow=none;html=1;rounded=0;exitX=0;exitY=1;exitDx=0;exitDy=0;entryX=1;entryY=0.5;entryDx=0;entryDy=0;" parent="1" source="7" target="83" edge="1">
                    <mxGeometry relative="1" as="geometry">
                        <mxPoint x="966" y="302" as="sourcePoint"/>
                        <mxPoint x="1090" y="280" as="targetPoint"/>
                    </mxGeometry>
                </mxCell>
                <mxCell id="86" value="" style="endArrow=none;html=1;rounded=0;exitX=0;exitY=0.5;exitDx=0;exitDy=0;entryX=1;entryY=0;entryDx=0;entryDy=0;" parent="1" source="83" target="8" edge="1">
                    <mxGeometry relative="1" as="geometry">
                        <mxPoint x="734.9248247277119" y="516.1703215501147" as="sourcePoint"/>
                        <mxPoint x="790" y="469" as="targetPoint"/>
                    </mxGeometry>
                </mxCell>
                <mxCell id="88" value="1" style="text;html=1;align=center;verticalAlign=middle;whiteSpace=wrap;rounded=0;" parent="1" vertex="1">
                    <mxGeometry x="910" y="415" width="60" height="30" as="geometry"/>
                </mxCell>
                <mxCell id="89" value="n" style="text;html=1;align=center;verticalAlign=middle;whiteSpace=wrap;rounded=0;" parent="1" vertex="1">
                    <mxGeometry x="686.88" y="500" width="50" height="25" as="geometry"/>
                </mxCell>
                <mxCell id="90" value="" style="endArrow=none;html=1;rounded=0;exitX=0;exitY=0;exitDx=0;exitDy=0;entryX=1;entryY=0.5;entryDx=0;entryDy=0;" parent="1" source="13" target="65" edge="1">
                    <mxGeometry relative="1" as="geometry">
                        <mxPoint x="1220" y="523" as="sourcePoint"/>
                        <mxPoint x="1180" y="490" as="targetPoint"/>
                        <Array as="points"/>
                    </mxGeometry>
                </mxCell>
                <mxCell id="91" value="include" style="shape=rhombus;perimeter=rhombusPerimeter;whiteSpace=wrap;html=1;align=center;rotation=-5;" parent="1" vertex="1">
                    <mxGeometry x="876.25" y="685" width="70" height="35" as="geometry"/>
                </mxCell>
                <mxCell id="93" value="" style="endArrow=none;html=1;rounded=0;entryX=0;entryY=0.5;entryDx=0;entryDy=0;exitX=1;exitY=1;exitDx=0;exitDy=0;" parent="1" source="8" target="91" edge="1">
                    <mxGeometry relative="1" as="geometry">
                        <mxPoint x="1105" y="490" as="sourcePoint"/>
                        <mxPoint x="1120" y="449" as="targetPoint"/>
                    </mxGeometry>
                </mxCell>
                <mxCell id="94" value="" style="endArrow=none;html=1;rounded=0;entryX=0;entryY=1;entryDx=0;entryDy=0;exitX=1;exitY=0.5;exitDx=0;exitDy=0;" parent="1" source="91" target="3" edge="1">
                    <mxGeometry relative="1" as="geometry">
                        <mxPoint x="890" y="570" as="sourcePoint"/>
                        <mxPoint x="926" y="603" as="targetPoint"/>
                    </mxGeometry>
                </mxCell>
                <mxCell id="95" value="n" style="text;html=1;align=center;verticalAlign=middle;whiteSpace=wrap;rounded=0;" parent="1" vertex="1">
                    <mxGeometry x="1050" y="513.75" width="60" height="30" as="geometry"/>
                </mxCell>
                <mxCell id="96" value="1" style="text;html=1;align=center;verticalAlign=middle;whiteSpace=wrap;rounded=0;" parent="1" vertex="1">
                    <mxGeometry x="670" y="570" width="60" height="30" as="geometry"/>
                </mxCell>
                <mxCell id="97" value="include" style="shape=rhombus;perimeter=rhombusPerimeter;whiteSpace=wrap;html=1;align=center;rotation=60;" parent="1" vertex="1">
                    <mxGeometry x="640" y="630" width="70" height="35" as="geometry"/>
                </mxCell>
                <mxCell id="98" value="" style="endArrow=none;html=1;rounded=0;entryX=0;entryY=0.5;entryDx=0;entryDy=0;exitX=0;exitY=1;exitDx=0;exitDy=0;" parent="1" source="8" target="97" edge="1">
                    <mxGeometry relative="1" as="geometry">
                        <mxPoint x="834" y="632" as="sourcePoint"/>
                        <mxPoint x="940" y="670" as="targetPoint"/>
                    </mxGeometry>
                </mxCell>
                <mxCell id="99" value="" style="endArrow=none;html=1;rounded=0;entryX=0.5;entryY=0;entryDx=0;entryDy=0;exitX=1;exitY=0.5;exitDx=0;exitDy=0;" parent="1" source="97" target="5" edge="1">
                    <mxGeometry relative="1" as="geometry">
                        <mxPoint x="770" y="680" as="sourcePoint"/>
                        <mxPoint x="770" y="743" as="targetPoint"/>
                    </mxGeometry>
                </mxCell>
                <mxCell id="100" value="1" style="text;html=1;align=center;verticalAlign=middle;whiteSpace=wrap;rounded=0;" parent="1" vertex="1">
                    <mxGeometry x="593.13" y="572.5" width="60" height="30" as="geometry"/>
                </mxCell>
                <mxCell id="101" value="n" style="text;html=1;align=center;verticalAlign=middle;whiteSpace=wrap;rounded=0;" parent="1" vertex="1">
                    <mxGeometry x="750" y="722.5" width="60" height="30" as="geometry"/>
                </mxCell>
                <mxCell id="103" value="has" style="shape=rhombus;perimeter=rhombusPerimeter;whiteSpace=wrap;html=1;align=center;rotation=20;" parent="1" vertex="1">
                    <mxGeometry x="870" y="760" width="70" height="35" as="geometry"/>
                </mxCell>
                <mxCell id="105" value="" style="endArrow=none;html=1;rounded=0;entryX=1;entryY=0;entryDx=0;entryDy=0;exitX=0;exitY=0.5;exitDx=0;exitDy=0;" parent="1" source="103" target="5" edge="1">
                    <mxGeometry relative="1" as="geometry">
                        <mxPoint x="790" y="570" as="sourcePoint"/>
                        <mxPoint x="790" y="633" as="targetPoint"/>
                    </mxGeometry>
                </mxCell>
                <mxCell id="106" value="" style="endArrow=none;html=1;rounded=0;entryX=1;entryY=0.5;entryDx=0;entryDy=0;exitX=0;exitY=0;exitDx=0;exitDy=0;" parent="1" source="4" target="103" edge="1">
                    <mxGeometry relative="1" as="geometry">
                        <mxPoint x="881" y="793" as="sourcePoint"/>
                        <mxPoint x="840" y="760" as="targetPoint"/>
                    </mxGeometry>
                </mxCell>
                <mxCell id="107" value="n" style="text;html=1;align=center;verticalAlign=middle;whiteSpace=wrap;rounded=0;" parent="1" vertex="1">
                    <mxGeometry x="820" y="730" width="60" height="30" as="geometry"/>
                </mxCell>
                <mxCell id="108" value="1" style="text;html=1;align=center;verticalAlign=middle;whiteSpace=wrap;rounded=0;" parent="1" vertex="1">
                    <mxGeometry x="950" y="780" width="60" height="30" as="geometry"/>
                </mxCell>
                <mxCell id="113" value="m" style="text;html=1;align=center;verticalAlign=middle;whiteSpace=wrap;rounded=0;" parent="1" vertex="1">
                    <mxGeometry x="1270" y="880" width="60" height="30" as="geometry"/>
                </mxCell>
                <mxCell id="114" value="n" style="text;html=1;align=center;verticalAlign=middle;whiteSpace=wrap;rounded=0;" parent="1" vertex="1">
                    <mxGeometry x="820" y="730" width="60" height="30" as="geometry"/>
                </mxCell>
                <mxCell id="115" value="n" style="text;html=1;align=center;verticalAlign=middle;whiteSpace=wrap;rounded=0;" parent="1" vertex="1">
                    <mxGeometry x="1070" y="830" width="60" height="30" as="geometry"/>
                </mxCell>
                <mxCell id="116" value="has" style="shape=rhombus;perimeter=rhombusPerimeter;whiteSpace=wrap;html=1;align=center;rotation=15;" parent="1" vertex="1">
                    <mxGeometry x="1165" y="880" width="70" height="35" as="geometry"/>
                </mxCell>
                <mxCell id="117" value="" style="endArrow=none;html=1;rounded=0;entryX=1;entryY=1;entryDx=0;entryDy=0;exitX=0;exitY=0.5;exitDx=0;exitDy=0;" parent="1" source="116" target="4" edge="1">
                    <mxGeometry relative="1" as="geometry">
                        <mxPoint x="1165" y="823" as="sourcePoint"/>
                        <mxPoint x="1090" y="820" as="targetPoint"/>
                    </mxGeometry>
                </mxCell>
                <mxCell id="119" value="" style="endArrow=none;html=1;rounded=0;entryX=1;entryY=0.5;entryDx=0;entryDy=0;exitX=0;exitY=0.5;exitDx=0;exitDy=0;" parent="1" source="14" target="116" edge="1">
                    <mxGeometry relative="1" as="geometry">
                        <mxPoint x="1176" y="898" as="sourcePoint"/>
                        <mxPoint x="1090" y="860" as="targetPoint"/>
                    </mxGeometry>
                </mxCell>
                <mxCell id="120" value="" style="endArrow=none;html=1;rounded=0;entryX=1;entryY=0;entryDx=0;entryDy=0;exitX=0;exitY=0.5;exitDx=0;exitDy=0;" parent="1" source="121" target="4" edge="1">
                    <mxGeometry relative="1" as="geometry">
                        <mxPoint x="1150" y="790" as="sourcePoint"/>
                        <mxPoint x="1090" y="860" as="targetPoint"/>
                    </mxGeometry>
                </mxCell>
                <mxCell id="121" value="has" style="shape=rhombus;perimeter=rhombusPerimeter;whiteSpace=wrap;html=1;align=center;rotation=-5;" parent="1" vertex="1">
                    <mxGeometry x="1180" y="775" width="70" height="35" as="geometry"/>
                </mxCell>
                <mxCell id="123" value="" style="endArrow=none;html=1;rounded=0;entryX=1;entryY=0.5;entryDx=0;entryDy=0;exitX=0;exitY=1;exitDx=0;exitDy=0;" parent="1" source="12" target="121" edge="1">
                    <mxGeometry relative="1" as="geometry">
                        <mxPoint x="1180" y="806" as="sourcePoint"/>
                        <mxPoint x="1090" y="820" as="targetPoint"/>
                    </mxGeometry>
                </mxCell>
                <mxCell id="124" value="has" style="shape=rhombus;perimeter=rhombusPerimeter;whiteSpace=wrap;html=1;align=center;rotation=30;" parent="1" vertex="1">
                    <mxGeometry x="1275" y="570" width="70" height="35" as="geometry"/>
                </mxCell>
                <mxCell id="125" value="has" style="shape=rhombus;perimeter=rhombusPerimeter;whiteSpace=wrap;html=1;align=center;rotation=30;" parent="1" vertex="1">
                    <mxGeometry x="1240" y="610" width="70" height="35" as="geometry"/>
                </mxCell>
                <mxCell id="126" value="" style="endArrow=none;html=1;rounded=0;entryX=0;entryY=0.5;entryDx=0;entryDy=0;exitX=1;exitY=0.75;exitDx=0;exitDy=0;" parent="1" source="3" target="124" edge="1">
                    <mxGeometry relative="1" as="geometry">
                        <mxPoint x="1340" y="780" as="sourcePoint"/>
                        <mxPoint x="1260" y="799" as="targetPoint"/>
                    </mxGeometry>
                </mxCell>
                <mxCell id="127" value="" style="endArrow=none;html=1;rounded=0;entryX=1;entryY=0.5;entryDx=0;entryDy=0;exitX=1;exitY=0;exitDx=0;exitDy=0;" parent="1" source="12" target="124" edge="1">
                    <mxGeometry relative="1" as="geometry">
                        <mxPoint x="1180" y="530" as="sourcePoint"/>
                        <mxPoint x="1290" y="580" as="targetPoint"/>
                    </mxGeometry>
                </mxCell>
                <mxCell id="130" value="" style="endArrow=none;html=1;rounded=0;entryX=1;entryY=0.5;entryDx=0;entryDy=0;exitX=0.5;exitY=0;exitDx=0;exitDy=0;" parent="1" source="12" target="125" edge="1">
                    <mxGeometry relative="1" as="geometry">
                        <mxPoint x="1440" y="740" as="sourcePoint"/>
                        <mxPoint x="1350" y="615" as="targetPoint"/>
                    </mxGeometry>
                </mxCell>
                <mxCell id="131" value="" style="endArrow=none;html=1;rounded=0;exitX=0;exitY=0.5;exitDx=0;exitDy=0;entryX=1;entryY=1;entryDx=0;entryDy=0;" parent="1" source="125" target="3" edge="1">
                    <mxGeometry relative="1" as="geometry">
                        <mxPoint x="1390" y="740" as="sourcePoint"/>
                        <mxPoint x="1190" y="550" as="targetPoint"/>
                    </mxGeometry>
                </mxCell>
                <mxCell id="133" value="1" style="text;html=1;align=center;verticalAlign=middle;whiteSpace=wrap;rounded=0;" parent="1" vertex="1">
                    <mxGeometry x="1410" y="700" width="60" height="30" as="geometry"/>
                </mxCell>
                <mxCell id="134" value="1" style="text;html=1;align=center;verticalAlign=middle;whiteSpace=wrap;rounded=0;" parent="1" vertex="1">
                    <mxGeometry x="1355" y="700" width="60" height="30" as="geometry"/>
                </mxCell>
                <mxCell id="135" value="n" style="text;html=1;align=center;verticalAlign=middle;whiteSpace=wrap;rounded=0;" parent="1" vertex="1">
                    <mxGeometry x="1160" y="492.5" width="60" height="30" as="geometry"/>
                </mxCell>
                <mxCell id="136" value="n" style="text;html=1;align=center;verticalAlign=middle;whiteSpace=wrap;rounded=0;" parent="1" vertex="1">
                    <mxGeometry x="1170" y="520" width="60" height="30" as="geometry"/>
                </mxCell>
                <mxCell id="137" value="1" style="text;html=1;align=center;verticalAlign=middle;whiteSpace=wrap;rounded=0;" parent="1" vertex="1">
                    <mxGeometry x="1280" y="745" width="60" height="30" as="geometry"/>
                </mxCell>
                <mxCell id="138" value="n" style="text;html=1;align=center;verticalAlign=middle;whiteSpace=wrap;rounded=0;" parent="1" vertex="1">
                    <mxGeometry x="1050" y="777.5" width="60" height="30" as="geometry"/>
                </mxCell>
                <mxCell id="139" value="Applies" style="shape=rhombus;perimeter=rhombusPerimeter;whiteSpace=wrap;html=1;align=center;rotation=35;" parent="1" vertex="1">
                    <mxGeometry x="520" y="447.5" width="70" height="35" as="geometry"/>
                </mxCell>
                <mxCell id="141" value="" style="endArrow=none;html=1;rounded=0;exitX=1;exitY=1;exitDx=0;exitDy=0;entryX=0;entryY=0.5;entryDx=0;entryDy=0;" parent="1" source="9" target="139" edge="1">
                    <mxGeometry relative="1" as="geometry">
                        <mxPoint x="518.75" y="293.79" as="sourcePoint"/>
                        <mxPoint x="386.32967844988525" y="428.7148247277134" as="targetPoint"/>
                    </mxGeometry>
                </mxCell>
                <mxCell id="142" value="" style="endArrow=none;html=1;rounded=0;exitX=1;exitY=0.5;exitDx=0;exitDy=0;entryX=0;entryY=0;entryDx=0;entryDy=0;" parent="1" source="139" target="8" edge="1">
                    <mxGeometry relative="1" as="geometry">
                        <mxPoint x="700" y="460" as="sourcePoint"/>
                        <mxPoint x="726" y="470" as="targetPoint"/>
                    </mxGeometry>
                </mxCell>
                <mxCell id="143" value="n" style="text;html=1;align=center;verticalAlign=middle;whiteSpace=wrap;rounded=0;" parent="1" vertex="1">
                    <mxGeometry x="350" y="336.29" width="60" height="30" as="geometry"/>
                </mxCell>
                <mxCell id="144" value="1" style="text;html=1;align=center;verticalAlign=middle;whiteSpace=wrap;rounded=0;" parent="1" vertex="1">
                    <mxGeometry x="590" y="500" width="60" height="30" as="geometry"/>
                </mxCell>
                <mxCell id="149" value="Userid" style="ellipse;whiteSpace=wrap;html=1;align=center;fontStyle=4;fillColor=#d80073;fontColor=#ffffff;strokeColor=#A50040;" parent="1" vertex="1">
                    <mxGeometry x="890" y="112.5" width="75" height="30" as="geometry"/>
                </mxCell>
                <mxCell id="150" value="" style="endArrow=none;html=1;rounded=0;entryX=0;entryY=0;entryDx=0;entryDy=0;exitX=0.5;exitY=1;exitDx=0;exitDy=0;" parent="1" source="149" target="2" edge="1">
                    <mxGeometry relative="1" as="geometry">
                        <mxPoint x="1330" y="240" as="sourcePoint"/>
                        <mxPoint x="1190" y="240" as="targetPoint"/>
                        <Array as="points"/>
                    </mxGeometry>
                </mxCell>
                <mxCell id="151" value="username" style="ellipse;whiteSpace=wrap;html=1;align=center;fillColor=#d80073;fontColor=#ffffff;strokeColor=#A50040;" parent="1" vertex="1">
                    <mxGeometry x="940" y="86.25" width="75" height="30" as="geometry"/>
                </mxCell>
                <mxCell id="152" value="" style="endArrow=none;html=1;rounded=0;entryX=0.5;entryY=1;entryDx=0;entryDy=0;exitX=0;exitY=0;exitDx=0;exitDy=0;" parent="1" source="2" target="151" edge="1">
                    <mxGeometry relative="1" as="geometry">
                        <mxPoint x="1010" y="220" as="sourcePoint"/>
                        <mxPoint x="1090" y="240" as="targetPoint"/>
                        <Array as="points"/>
                    </mxGeometry>
                </mxCell>
                <mxCell id="153" value="email" style="ellipse;whiteSpace=wrap;html=1;align=center;fillColor=#d80073;fontColor=#ffffff;strokeColor=#A50040;" parent="1" vertex="1">
                    <mxGeometry x="970" y="47.5" width="75" height="30" as="geometry"/>
                </mxCell>
                <mxCell id="155" value="" style="endArrow=none;html=1;rounded=0;entryX=0.5;entryY=1;entryDx=0;entryDy=0;exitX=0;exitY=0;exitDx=0;exitDy=0;" parent="1" source="2" target="153" edge="1">
                    <mxGeometry relative="1" as="geometry">
                        <mxPoint x="1090" y="240" as="sourcePoint"/>
                        <mxPoint x="1090" y="180" as="targetPoint"/>
                        <Array as="points"/>
                    </mxGeometry>
                </mxCell>
                <mxCell id="156" value="password" style="ellipse;whiteSpace=wrap;html=1;align=center;fillColor=#d80073;fontColor=#ffffff;strokeColor=#A50040;" parent="1" vertex="1">
                    <mxGeometry x="845" y="150" width="75" height="30" as="geometry"/>
                </mxCell>
                <mxCell id="157" value="" style="endArrow=none;html=1;rounded=0;entryX=1;entryY=0.5;entryDx=0;entryDy=0;exitX=0;exitY=0;exitDx=0;exitDy=0;" parent="1" source="2" target="156" edge="1">
                    <mxGeometry relative="1" as="geometry">
                        <mxPoint x="1090" y="240" as="sourcePoint"/>
                        <mxPoint x="1170" y="180" as="targetPoint"/>
                        <Array as="points"/>
                    </mxGeometry>
                </mxCell>
                <mxCell id="158" value="created_at" style="ellipse;whiteSpace=wrap;html=1;align=center;fillColor=#d80073;fontColor=#ffffff;strokeColor=#A50040;" parent="1" vertex="1">
                    <mxGeometry x="840" y="190" width="75" height="30" as="geometry"/>
                </mxCell>
                <mxCell id="159" value="" style="endArrow=none;html=1;rounded=0;entryX=1;entryY=0.5;entryDx=0;entryDy=0;exitX=0;exitY=0;exitDx=0;exitDy=0;" parent="1" source="2" target="158" edge="1">
                    <mxGeometry relative="1" as="geometry">
                        <mxPoint x="1090" y="240" as="sourcePoint"/>
                        <mxPoint x="975" y="185" as="targetPoint"/>
                        <Array as="points"/>
                    </mxGeometry>
                </mxCell>
                <mxCell id="160" value="last_login" style="ellipse;whiteSpace=wrap;html=1;align=center;fillColor=#d80073;fontColor=#ffffff;strokeColor=#A50040;" parent="1" vertex="1">
                    <mxGeometry x="1005" y="13.75" width="75" height="30" as="geometry"/>
                </mxCell>
                <mxCell id="161" value="" style="endArrow=none;html=1;rounded=0;entryX=0.5;entryY=1;entryDx=0;entryDy=0;exitX=0;exitY=0;exitDx=0;exitDy=0;" parent="1" source="2" target="160" edge="1">
                    <mxGeometry relative="1" as="geometry">
                        <mxPoint x="1090" y="240" as="sourcePoint"/>
                        <mxPoint x="1170" y="180" as="targetPoint"/>
                        <Array as="points"/>
                    </mxGeometry>
                </mxCell>
                <mxCell id="162" value="Customerid" style="ellipse;whiteSpace=wrap;html=1;align=center;fontStyle=4;fillColor=#e51400;fontColor=#ffffff;strokeColor=#B20000;" parent="1" vertex="1">
                    <mxGeometry x="1700" y="20" width="75" height="30" as="geometry"/>
                </mxCell>
                <mxCell id="163" value="" style="endArrow=none;html=1;rounded=0;entryX=1;entryY=0;entryDx=0;entryDy=0;exitX=0.5;exitY=1;exitDx=0;exitDy=0;" parent="1" source="162" target="33" edge="1">
                    <mxGeometry relative="1" as="geometry">
                        <mxPoint x="1520" y="130" as="sourcePoint"/>
                        <mxPoint x="1450" y="130" as="targetPoint"/>
                        <Array as="points"/>
                    </mxGeometry>
                </mxCell>
                <mxCell id="165" value="FirstName" style="ellipse;whiteSpace=wrap;html=1;align=center;fillColor=#e51400;fontColor=#ffffff;strokeColor=#B20000;" parent="1" vertex="1">
                    <mxGeometry x="1803.75" y="13.75" width="75" height="30" as="geometry"/>
                </mxCell>
                <mxCell id="166" value="national_id" style="ellipse;whiteSpace=wrap;html=1;align=center;fillColor=#e51400;fontColor=#ffffff;strokeColor=#B20000;" parent="1" vertex="1">
                    <mxGeometry x="1785" y="80" width="75" height="30" as="geometry"/>
                </mxCell>
                <mxCell id="167" value="phone" style="ellipse;whiteSpace=wrap;html=1;align=center;fillColor=#e51400;fontColor=#ffffff;strokeColor=#B20000;" parent="1" vertex="1">
                    <mxGeometry x="1785" y="118.66" width="75" height="30" as="geometry"/>
                </mxCell>
                <mxCell id="168" value="DateOfBirth" style="ellipse;whiteSpace=wrap;html=1;align=center;fillColor=#e51400;fontColor=#ffffff;strokeColor=#B20000;" parent="1" vertex="1">
                    <mxGeometry x="1785" y="160" width="75" height="30" as="geometry"/>
                </mxCell>
                <mxCell id="169" value="address" style="ellipse;whiteSpace=wrap;html=1;align=center;fillColor=#e51400;fontColor=#ffffff;strokeColor=#B20000;" parent="1" vertex="1">
                    <mxGeometry x="1785" y="195" width="75" height="30" as="geometry"/>
                </mxCell>
                <mxCell id="170" value="" style="endArrow=none;html=1;rounded=0;entryX=1;entryY=0;entryDx=0;entryDy=0;exitX=0;exitY=0.5;exitDx=0;exitDy=0;" parent="1" source="165" target="33" edge="1">
                    <mxGeometry relative="1" as="geometry">
                        <mxPoint x="1758" y="80" as="sourcePoint"/>
                        <mxPoint x="1645" y="130" as="targetPoint"/>
                        <Array as="points"/>
                    </mxGeometry>
                </mxCell>
                <mxCell id="171" value="" style="endArrow=none;html=1;rounded=0;entryX=1;entryY=0;entryDx=0;entryDy=0;exitX=0;exitY=0.5;exitDx=0;exitDy=0;" parent="1" source="166" target="33" edge="1">
                    <mxGeometry relative="1" as="geometry">
                        <mxPoint x="1795" y="90" as="sourcePoint"/>
                        <mxPoint x="1645" y="130" as="targetPoint"/>
                        <Array as="points"/>
                    </mxGeometry>
                </mxCell>
                <mxCell id="172" value="" style="endArrow=none;html=1;rounded=0;entryX=1;entryY=0;entryDx=0;entryDy=0;exitX=0;exitY=0.5;exitDx=0;exitDy=0;" parent="1" source="167" target="33" edge="1">
                    <mxGeometry relative="1" as="geometry">
                        <mxPoint x="1795" y="125" as="sourcePoint"/>
                        <mxPoint x="1645" y="130" as="targetPoint"/>
                        <Array as="points"/>
                    </mxGeometry>
                </mxCell>
                <mxCell id="173" value="" style="endArrow=none;html=1;rounded=0;entryX=1;entryY=0;entryDx=0;entryDy=0;exitX=0;exitY=0.5;exitDx=0;exitDy=0;" parent="1" source="168" target="33" edge="1">
                    <mxGeometry relative="1" as="geometry">
                        <mxPoint x="1795" y="165" as="sourcePoint"/>
                        <mxPoint x="1645" y="130" as="targetPoint"/>
                        <Array as="points"/>
                    </mxGeometry>
                </mxCell>
                <mxCell id="174" value="" style="endArrow=none;html=1;rounded=0;entryX=1;entryY=0;entryDx=0;entryDy=0;exitX=0;exitY=0.5;exitDx=0;exitDy=0;" parent="1" source="169" target="33" edge="1">
                    <mxGeometry relative="1" as="geometry">
                        <mxPoint x="1795" y="185" as="sourcePoint"/>
                        <mxPoint x="1645" y="130" as="targetPoint"/>
                        <Array as="points"/>
                    </mxGeometry>
                </mxCell>
                <mxCell id="175" value="ReviewId" style="ellipse;whiteSpace=wrap;html=1;align=center;fontStyle=4;fillColor=#6d8764;fontColor=#ffffff;strokeColor=#3A5431;" parent="1" vertex="1">
                    <mxGeometry x="1785" y="237.59" width="75" height="30" as="geometry"/>
                </mxCell>
                <mxCell id="176" value="" style="endArrow=none;html=1;rounded=0;entryX=1;entryY=0;entryDx=0;entryDy=0;exitX=0;exitY=0.5;exitDx=0;exitDy=0;" parent="1" source="175" target="10" edge="1">
                    <mxGeometry relative="1" as="geometry">
                        <mxPoint x="1755" y="330" as="sourcePoint"/>
                        <mxPoint x="1605" y="240" as="targetPoint"/>
                        <Array as="points"/>
                    </mxGeometry>
                </mxCell>
                <mxCell id="177" value="comment" style="ellipse;whiteSpace=wrap;html=1;align=center;fillColor=#6d8764;fontColor=#ffffff;strokeColor=#3A5431;" parent="1" vertex="1">
                    <mxGeometry x="1785" y="275.09000000000003" width="75" height="30" as="geometry"/>
                </mxCell>
                <mxCell id="178" value="" style="endArrow=none;html=1;rounded=0;entryX=1;entryY=0;entryDx=0;entryDy=0;exitX=0;exitY=0.5;exitDx=0;exitDy=0;" parent="1" source="177" target="10" edge="1">
                    <mxGeometry relative="1" as="geometry">
                        <mxPoint x="1690" y="363" as="sourcePoint"/>
                        <mxPoint x="1600" y="400" as="targetPoint"/>
                        <Array as="points"/>
                    </mxGeometry>
                </mxCell>
                <mxCell id="179" value="CompanyId" style="ellipse;whiteSpace=wrap;html=1;align=center;fontStyle=4;fillColor=#0050ef;fontColor=#ffffff;strokeColor=#001DBC;" parent="1" vertex="1">
                    <mxGeometry x="1490" y="460" width="75" height="30" as="geometry"/>
                </mxCell>
                <mxCell id="180" value="" style="endArrow=none;html=1;rounded=0;entryX=1;entryY=0;entryDx=0;entryDy=0;exitX=0;exitY=0.5;exitDx=0;exitDy=0;" parent="1" source="179" target="13" edge="1">
                    <mxGeometry relative="1" as="geometry">
                        <mxPoint x="1690" y="363" as="sourcePoint"/>
                        <mxPoint x="1600" y="400" as="targetPoint"/>
                        <Array as="points"/>
                    </mxGeometry>
                </mxCell>
                <mxCell id="181" value="companyName" style="ellipse;whiteSpace=wrap;html=1;align=center;fillColor=#0050ef;fontColor=#ffffff;strokeColor=#001DBC;" parent="1" vertex="1">
                    <mxGeometry x="1480.63" y="497.5" width="93.75" height="37.5" as="geometry"/>
                </mxCell>
                <mxCell id="182" value="" style="endArrow=none;html=1;rounded=0;entryX=1;entryY=0;entryDx=0;entryDy=0;exitX=0;exitY=0.5;exitDx=0;exitDy=0;" parent="1" source="181" target="13" edge="1">
                    <mxGeometry relative="1" as="geometry">
                        <mxPoint x="1500" y="485" as="sourcePoint"/>
                        <mxPoint x="1455" y="505" as="targetPoint"/>
                        <Array as="points"/>
                    </mxGeometry>
                </mxCell>
                <mxCell id="183" value="CityId" style="ellipse;whiteSpace=wrap;html=1;align=center;fontStyle=4;fillColor=#76608a;fontColor=#ffffff;strokeColor=#432D57;" parent="1" vertex="1">
                    <mxGeometry x="1490.01" y="700" width="75" height="30" as="geometry"/>
                </mxCell>
                <mxCell id="184" value="" style="endArrow=none;html=1;rounded=0;entryX=1;entryY=0;entryDx=0;entryDy=0;exitX=0;exitY=0.5;exitDx=0;exitDy=0;" parent="1" source="183" target="12" edge="1">
                    <mxGeometry relative="1" as="geometry">
                        <mxPoint x="1491" y="526" as="sourcePoint"/>
                        <mxPoint x="1455" y="505" as="targetPoint"/>
                        <Array as="points"/>
                    </mxGeometry>
                </mxCell>
                <mxCell id="185" value="cityName" style="ellipse;whiteSpace=wrap;html=1;align=center;fillColor=#76608a;fontColor=#ffffff;strokeColor=#432D57;" parent="1" vertex="1">
                    <mxGeometry x="1480.64" y="740" width="93.75" height="37.5" as="geometry"/>
                </mxCell>
                <mxCell id="186" value="" style="endArrow=none;html=1;rounded=0;entryX=1;entryY=0;entryDx=0;entryDy=0;exitX=0;exitY=0.5;exitDx=0;exitDy=0;" parent="1" source="185" target="12" edge="1">
                    <mxGeometry relative="1" as="geometry">
                        <mxPoint x="1500" y="725" as="sourcePoint"/>
                        <mxPoint x="1440" y="740" as="targetPoint"/>
                        <Array as="points"/>
                    </mxGeometry>
                </mxCell>
                <mxCell id="187" value="AmenityId" style="ellipse;whiteSpace=wrap;html=1;align=center;fontStyle=4;fillColor=#ffe6cc;strokeColor=#d79b00;" parent="1" vertex="1">
                    <mxGeometry x="1510" y="850" width="75" height="30" as="geometry"/>
                </mxCell>
                <mxCell id="188" value="" style="endArrow=none;html=1;rounded=0;entryX=1;entryY=0;entryDx=0;entryDy=0;exitX=0;exitY=0.5;exitDx=0;exitDy=0;" parent="1" source="187" target="14" edge="1">
                    <mxGeometry relative="1" as="geometry">
                        <mxPoint x="1491" y="769" as="sourcePoint"/>
                        <mxPoint x="1440" y="740" as="targetPoint"/>
                        <Array as="points"/>
                    </mxGeometry>
                </mxCell>
                <mxCell id="189" value="amenityType" style="ellipse;whiteSpace=wrap;html=1;align=center;fillColor=#ffe6cc;strokeColor=#d79b00;" parent="1" vertex="1">
                    <mxGeometry x="1501.25" y="892.5" width="93.75" height="37.5" as="geometry"/>
                </mxCell>
                <mxCell id="190" value="" style="endArrow=none;html=1;rounded=0;entryX=1;entryY=0;entryDx=0;entryDy=0;exitX=0;exitY=0.5;exitDx=0;exitDy=0;" parent="1" source="189" target="14" edge="1">
                    <mxGeometry relative="1" as="geometry">
                        <mxPoint x="1520" y="875" as="sourcePoint"/>
                        <mxPoint x="1465" y="890" as="targetPoint"/>
                        <Array as="points"/>
                    </mxGeometry>
                </mxCell>
                <mxCell id="191" value="HotelId" style="ellipse;whiteSpace=wrap;html=1;align=center;fontStyle=4;fillColor=#fff2cc;strokeColor=#d6b656;" parent="1" vertex="1">
                    <mxGeometry x="890" y="896.25" width="75" height="30" as="geometry"/>
                </mxCell>
                <mxCell id="192" value="" style="endArrow=none;html=1;rounded=0;entryX=0;entryY=1;entryDx=0;entryDy=0;exitX=0.5;exitY=0;exitDx=0;exitDy=0;" parent="1" source="191" target="4" edge="1">
                    <mxGeometry relative="1" as="geometry">
                        <mxPoint x="1190" y="806" as="sourcePoint"/>
                        <mxPoint x="1090" y="820" as="targetPoint"/>
                    </mxGeometry>
                </mxCell>
                <mxCell id="193" value="hotelname" style="ellipse;whiteSpace=wrap;html=1;align=center;fillColor=#fff2cc;strokeColor=#d6b656;" parent="1" vertex="1">
                    <mxGeometry x="970" y="896.25" width="93.75" height="37.5" as="geometry"/>
                </mxCell>
                <mxCell id="194" value="" style="endArrow=none;html=1;rounded=0;entryX=0;entryY=1;entryDx=0;entryDy=0;exitX=0.5;exitY=0;exitDx=0;exitDy=0;" parent="1" source="193" target="4" edge="1">
                    <mxGeometry relative="1" as="geometry">
                        <mxPoint x="938" y="906" as="sourcePoint"/>
                        <mxPoint x="990" y="860" as="targetPoint"/>
                    </mxGeometry>
                </mxCell>
                <mxCell id="195" value="location" style="ellipse;whiteSpace=wrap;html=1;align=center;fillColor=#fff2cc;strokeColor=#d6b656;" parent="1" vertex="1">
                    <mxGeometry x="1066.25" y="896.25" width="93.75" height="37.5" as="geometry"/>
                </mxCell>
                <mxCell id="196" value="" style="endArrow=none;html=1;rounded=0;entryX=0;entryY=1;entryDx=0;entryDy=0;exitX=0.5;exitY=0;exitDx=0;exitDy=0;" parent="1" source="195" target="4" edge="1">
                    <mxGeometry relative="1" as="geometry">
                        <mxPoint x="1027" y="906" as="sourcePoint"/>
                        <mxPoint x="990" y="860" as="targetPoint"/>
                    </mxGeometry>
                </mxCell>
                <mxCell id="197" value="RoomId" style="ellipse;whiteSpace=wrap;html=1;align=center;fontStyle=4;fillColor=#f8cecc;strokeColor=#b85450;" parent="1" vertex="1">
                    <mxGeometry x="625" y="815" width="75" height="30" as="geometry"/>
                </mxCell>
                <mxCell id="198" value="" style="endArrow=none;html=1;rounded=0;entryX=0.5;entryY=0;entryDx=0;entryDy=0;exitX=0;exitY=1;exitDx=0;exitDy=0;" parent="1" source="5" target="197" edge="1">
                    <mxGeometry relative="1" as="geometry">
                        <mxPoint x="790" y="703" as="sourcePoint"/>
                        <mxPoint x="790" y="760" as="targetPoint"/>
                    </mxGeometry>
                </mxCell>
                <mxCell id="199" value="roomType" style="ellipse;whiteSpace=wrap;html=1;align=center;fillColor=#f8cecc;strokeColor=#b85450;" parent="1" vertex="1">
                    <mxGeometry x="700" y="822.5" width="93.75" height="37.5" as="geometry"/>
                </mxCell>
                <mxCell id="200" value="" style="endArrow=none;html=1;rounded=0;entryX=0.5;entryY=0;entryDx=0;entryDy=0;exitX=0;exitY=1;exitDx=0;exitDy=0;" parent="1" source="5" target="199" edge="1">
                    <mxGeometry relative="1" as="geometry">
                        <mxPoint x="740" y="800" as="sourcePoint"/>
                        <mxPoint x="673" y="825" as="targetPoint"/>
                    </mxGeometry>
                </mxCell>
                <mxCell id="201" value="price" style="ellipse;whiteSpace=wrap;html=1;align=center;fillColor=#f8cecc;strokeColor=#b85450;" parent="1" vertex="1">
                    <mxGeometry x="803.13" y="822.5" width="93.75" height="37.5" as="geometry"/>
                </mxCell>
                <mxCell id="202" value="" style="endArrow=none;html=1;rounded=0;entryX=0.5;entryY=0;entryDx=0;entryDy=0;exitX=0;exitY=1;exitDx=0;exitDy=0;" parent="1" source="5" target="201" edge="1">
                    <mxGeometry relative="1" as="geometry">
                        <mxPoint x="740" y="800" as="sourcePoint"/>
                        <mxPoint x="763" y="833" as="targetPoint"/>
                    </mxGeometry>
                </mxCell>
                <mxCell id="203" value="Itemid" style="ellipse;whiteSpace=wrap;html=1;align=center;fontStyle=4;fillColor=#d5e8d4;strokeColor=#82b366;" parent="1" vertex="1">
                    <mxGeometry x="425.62" y="470" width="75" height="30" as="geometry"/>
                </mxCell>
                <mxCell id="204" value="" style="endArrow=none;html=1;rounded=0;entryX=1;entryY=0.5;entryDx=0;entryDy=0;exitX=0;exitY=0.5;exitDx=0;exitDy=0;" parent="1" source="8" target="203" edge="1">
                    <mxGeometry relative="1" as="geometry">
                        <mxPoint x="834" y="632" as="sourcePoint"/>
                        <mxPoint x="940" y="670" as="targetPoint"/>
                    </mxGeometry>
                </mxCell>
                <mxCell id="205" value="itemtype" style="ellipse;whiteSpace=wrap;html=1;align=center;fillColor=#d5e8d4;strokeColor=#82b366;" parent="1" vertex="1">
                    <mxGeometry x="416.25" y="510" width="93.75" height="37.5" as="geometry"/>
                </mxCell>
                <mxCell id="206" value="" style="endArrow=none;html=1;rounded=0;entryX=1;entryY=0.5;entryDx=0;entryDy=0;exitX=0;exitY=0.5;exitDx=0;exitDy=0;" parent="1" source="8" target="205" edge="1">
                    <mxGeometry relative="1" as="geometry">
                        <mxPoint x="630" y="560" as="sourcePoint"/>
                        <mxPoint x="520" y="536" as="targetPoint"/>
                    </mxGeometry>
                </mxCell>
                <mxCell id="207" value="ItemDetails" style="ellipse;whiteSpace=wrap;html=1;align=center;fillColor=#d5e8d4;strokeColor=#82b366;" parent="1" vertex="1">
                    <mxGeometry x="416.25" y="550" width="93.75" height="37.5" as="geometry"/>
                </mxCell>
                <mxCell id="208" value="" style="endArrow=none;html=1;rounded=0;entryX=1;entryY=0.5;entryDx=0;entryDy=0;exitX=0;exitY=0.5;exitDx=0;exitDy=0;" parent="1" source="8" target="207" edge="1">
                    <mxGeometry relative="1" as="geometry">
                        <mxPoint x="630" y="560" as="sourcePoint"/>
                        <mxPoint x="529" y="574" as="targetPoint"/>
                    </mxGeometry>
                </mxCell>
                <mxCell id="209" value="BookingId" style="ellipse;whiteSpace=wrap;html=1;align=center;fontStyle=4;fillColor=#647687;fontColor=#ffffff;strokeColor=#314354;" parent="1" vertex="1">
                    <mxGeometry x="1008.75" y="298.65999999999997" width="75" height="30" as="geometry"/>
                </mxCell>
                <mxCell id="210" value="" style="endArrow=none;html=1;rounded=0;entryX=0.5;entryY=1;entryDx=0;entryDy=0;exitX=0.5;exitY=0;exitDx=0;exitDy=0;" parent="1" source="7" target="209" edge="1">
                    <mxGeometry relative="1" as="geometry">
                        <mxPoint x="1140" y="371" as="sourcePoint"/>
                        <mxPoint x="1165" y="280" as="targetPoint"/>
                    </mxGeometry>
                </mxCell>
                <mxCell id="211" value="bookingDate" style="ellipse;whiteSpace=wrap;html=1;align=center;fillColor=#647687;fontColor=#ffffff;strokeColor=#314354;" parent="1" vertex="1">
                    <mxGeometry x="916.25" y="322.5" width="93.75" height="37.5" as="geometry"/>
                </mxCell>
                <mxCell id="212" value="" style="endArrow=none;html=1;rounded=0;entryX=0.5;entryY=1;entryDx=0;entryDy=0;exitX=0.5;exitY=0;exitDx=0;exitDy=0;" parent="1" source="7" target="211" edge="1">
                    <mxGeometry relative="1" as="geometry">
                        <mxPoint x="1010" y="400" as="sourcePoint"/>
                        <mxPoint x="1056" y="339" as="targetPoint"/>
                    </mxGeometry>
                </mxCell>
                <mxCell id="213" value="DiscountId" style="ellipse;whiteSpace=wrap;html=1;align=center;fontStyle=4;fillColor=#ffcc99;strokeColor=#36393d;" parent="1" vertex="1">
                    <mxGeometry x="118.75" y="283.78999999999996" width="75" height="30" as="geometry"/>
                </mxCell>
                <mxCell id="214" value="" style="endArrow=none;html=1;rounded=0;entryX=1;entryY=0.5;entryDx=0;entryDy=0;exitX=0;exitY=0;exitDx=0;exitDy=0;" parent="1" source="9" target="213" edge="1">
                    <mxGeometry relative="1" as="geometry">
                        <mxPoint x="662.75" y="555.79" as="sourcePoint"/>
                        <mxPoint x="768.75" y="593.79" as="targetPoint"/>
                    </mxGeometry>
                </mxCell>
                <mxCell id="215" value="discountCode" style="ellipse;whiteSpace=wrap;html=1;align=center;fillColor=#ffcc99;strokeColor=#36393d;" parent="1" vertex="1">
                    <mxGeometry x="100" y="320.04" width="93.75" height="37.5" as="geometry"/>
                </mxCell>
                <mxCell id="216" value="discountValue" style="ellipse;whiteSpace=wrap;html=1;align=center;fillColor=#ffcc99;strokeColor=#36393d;" parent="1" vertex="1">
                    <mxGeometry x="100" y="363.79" width="93.75" height="37.5" as="geometry"/>
                </mxCell>
                <mxCell id="218" value="" style="endArrow=none;html=1;rounded=0;entryX=1;entryY=0.5;entryDx=0;entryDy=0;exitX=0;exitY=0;exitDx=0;exitDy=0;" parent="1" source="9" target="215" edge="1">
                    <mxGeometry relative="1" as="geometry">
                        <mxPoint x="268.75" y="353.79" as="sourcePoint"/>
                        <mxPoint x="203.75" y="308.79" as="targetPoint"/>
                    </mxGeometry>
                </mxCell>
                <mxCell id="219" value="" style="endArrow=none;html=1;rounded=0;entryX=1;entryY=0.5;entryDx=0;entryDy=0;exitX=0;exitY=0;exitDx=0;exitDy=0;" parent="1" source="9" target="216" edge="1">
                    <mxGeometry relative="1" as="geometry">
                        <mxPoint x="268.75" y="353.79" as="sourcePoint"/>
                        <mxPoint x="203.75" y="348.79" as="targetPoint"/>
                    </mxGeometry>
                </mxCell>
                <mxCell id="220" value="PaymentId" style="ellipse;whiteSpace=wrap;html=1;align=center;fontStyle=4;fillColor=#cdeb8b;strokeColor=#36393d;" parent="1" vertex="1">
                    <mxGeometry x="635" y="142.49999999999997" width="75" height="30" as="geometry"/>
                </mxCell>
                <mxCell id="221" value="" style="endArrow=none;html=1;rounded=0;exitX=0;exitY=0;exitDx=0;exitDy=0;entryX=0.5;entryY=1;entryDx=0;entryDy=0;" parent="1" source="6" target="220" edge="1">
                    <mxGeometry relative="1" as="geometry">
                        <mxPoint x="932.25" y="183.34" as="sourcePoint"/>
                        <mxPoint x="1056.25" y="161.34" as="targetPoint"/>
                    </mxGeometry>
                </mxCell>
                <mxCell id="222" value="amount" style="ellipse;whiteSpace=wrap;html=1;align=center;fillColor=#cdeb8b;strokeColor=#36393d;" parent="1" vertex="1">
                    <mxGeometry x="559.38" y="170.00000000000003" width="93.75" height="37.5" as="geometry"/>
                </mxCell>
                <mxCell id="224" value="paymentDate" style="ellipse;whiteSpace=wrap;html=1;align=center;fillColor=#cdeb8b;strokeColor=#36393d;" parent="1" vertex="1">
                    <mxGeometry x="562.5" y="218.84" width="93.75" height="37.5" as="geometry"/>
                </mxCell>
                <mxCell id="225" value="" style="endArrow=none;html=1;rounded=0;entryX=1;entryY=1;entryDx=0;entryDy=0;exitX=0;exitY=0;exitDx=0;exitDy=0;" parent="1" source="6" target="222" edge="1">
                    <mxGeometry relative="1" as="geometry">
                        <mxPoint x="696.25" y="231.34" as="sourcePoint"/>
                        <mxPoint x="709.25" y="190.34" as="targetPoint"/>
                    </mxGeometry>
                </mxCell>
                <mxCell id="226" value="" style="endArrow=none;html=1;rounded=0;entryX=1;entryY=0.5;entryDx=0;entryDy=0;exitX=0;exitY=0;exitDx=0;exitDy=0;" parent="1" source="6" target="224" edge="1">
                    <mxGeometry relative="1" as="geometry">
                        <mxPoint x="716.25" y="241.34" as="sourcePoint"/>
                        <mxPoint x="671.25" y="190.34" as="targetPoint"/>
                    </mxGeometry>
                </mxCell>
                <mxCell id="227" value="SeatId" style="ellipse;whiteSpace=wrap;html=1;align=center;fontStyle=4;fillColor=#cce5ff;strokeColor=#36393d;" parent="1" vertex="1">
                    <mxGeometry x="975" y="690" width="75" height="30" as="geometry"/>
                </mxCell>
                <mxCell id="228" value="" style="endArrow=none;html=1;rounded=0;entryX=0;entryY=1;entryDx=0;entryDy=0;exitX=1;exitY=0.5;exitDx=0;exitDy=0;" parent="1" source="227" target="16" edge="1">
                    <mxGeometry relative="1" as="geometry">
                        <mxPoint x="994" y="622" as="sourcePoint"/>
                        <mxPoint x="1100" y="660" as="targetPoint"/>
                    </mxGeometry>
                </mxCell>
                <mxCell id="231" value="FlightId&amp;nbsp;" style="ellipse;whiteSpace=wrap;html=1;align=center;fontStyle=4;fillColor=#1ba1e2;strokeColor=#006EAF;fontColor=#ffffff;" parent="1" vertex="1">
                    <mxGeometry x="960" y="450" width="75" height="30" as="geometry"/>
                </mxCell>
                <mxCell id="232" value="" style="endArrow=none;html=1;rounded=0;entryX=0;entryY=0.5;entryDx=0;entryDy=0;exitX=1;exitY=0.5;exitDx=0;exitDy=0;" parent="1" source="231" target="3" edge="1">
                    <mxGeometry relative="1" as="geometry">
                        <mxPoint x="994" y="622" as="sourcePoint"/>
                        <mxPoint x="1100" y="660" as="targetPoint"/>
                    </mxGeometry>
                </mxCell>
                <mxCell id="233" value="ticketType" style="ellipse;whiteSpace=wrap;html=1;align=center;fillColor=#1ba1e2;strokeColor=#006EAF;fontColor=#ffffff;" parent="1" vertex="1">
                    <mxGeometry x="946.25" y="485" width="93.75" height="37.5" as="geometry"/>
                </mxCell>
                <mxCell id="235" value="" style="endArrow=none;html=1;rounded=0;entryX=0;entryY=0.5;entryDx=0;entryDy=0;exitX=1;exitY=0.5;exitDx=0;exitDy=0;" parent="1" source="233" target="3" edge="1">
                    <mxGeometry relative="1" as="geometry">
                        <mxPoint x="1045" y="475" as="sourcePoint"/>
                        <mxPoint x="1080" y="510" as="targetPoint"/>
                    </mxGeometry>
                </mxCell>
                <mxCell id="237" value="NotificationId" style="ellipse;whiteSpace=wrap;html=1;align=center;fontStyle=4;fillColor=#e3c800;strokeColor=#B09500;fontColor=#000000;" parent="1" vertex="1">
                    <mxGeometry x="1370" y="357.5" width="75" height="30" as="geometry"/>
                </mxCell>
                <mxCell id="238" value="" style="endArrow=none;html=1;rounded=0;entryX=1;entryY=0;entryDx=0;entryDy=0;exitX=0;exitY=0.5;exitDx=0;exitDy=0;" parent="1" source="237" target="17" edge="1">
                    <mxGeometry relative="1" as="geometry">
                        <mxPoint x="1500" y="400" as="sourcePoint"/>
                        <mxPoint x="1415" y="350" as="targetPoint"/>
                        <Array as="points"/>
                    </mxGeometry>
                </mxCell>
                <mxCell id="240" value="message" style="ellipse;whiteSpace=wrap;html=1;align=center;fillColor=#e3c800;fontColor=#000000;strokeColor=#B09500;" parent="1" vertex="1">
                    <mxGeometry x="1376.25" y="391.25" width="93.75" height="37.5" as="geometry"/>
                </mxCell>
                <mxCell id="241" value="notificationDate" style="ellipse;whiteSpace=wrap;html=1;align=center;fillColor=#e3c800;fontColor=#000000;strokeColor=#B09500;" parent="1" vertex="1">
                    <mxGeometry x="1376.25" y="432.5" width="93.75" height="37.5" as="geometry"/>
                </mxCell>
                <mxCell id="242" value="" style="endArrow=none;html=1;rounded=0;entryX=1;entryY=0;entryDx=0;entryDy=0;exitX=0;exitY=0;exitDx=0;exitDy=0;" parent="1" source="240" target="17" edge="1">
                    <mxGeometry relative="1" as="geometry">
                        <mxPoint x="1380" y="383" as="sourcePoint"/>
                        <mxPoint x="1365" y="390" as="targetPoint"/>
                        <Array as="points"/>
                    </mxGeometry>
                </mxCell>
                <mxCell id="243" value="" style="endArrow=none;html=1;rounded=0;entryX=1;entryY=0;entryDx=0;entryDy=0;exitX=0;exitY=0;exitDx=0;exitDy=0;" parent="1" source="241" target="17" edge="1">
                    <mxGeometry relative="1" as="geometry">
                        <mxPoint x="1385" y="408" as="sourcePoint"/>
                        <mxPoint x="1365" y="390" as="targetPoint"/>
                        <Array as="points"/>
                    </mxGeometry>
                </mxCell>
                <mxCell id="244" value="&lt;span style=&quot;color: rgb(63, 63, 63);&quot;&gt;extraCost&lt;/span&gt;" style="ellipse;whiteSpace=wrap;html=1;align=center;fillColor=#fff2cc;strokeColor=#d6b656;" parent="1" vertex="1">
                    <mxGeometry x="1186.25" y="950" width="93.75" height="37.5" as="geometry"/>
                </mxCell>
                <mxCell id="245" value="" style="endArrow=none;html=1;rounded=0;entryX=0.5;entryY=1;entryDx=0;entryDy=0;exitX=0.5;exitY=0;exitDx=0;exitDy=0;" parent="1" source="244" target="116" edge="1">
                    <mxGeometry relative="1" as="geometry">
                        <mxPoint x="1123" y="906" as="sourcePoint"/>
                        <mxPoint x="990" y="860" as="targetPoint"/>
                    </mxGeometry>
                </mxCell>
                <mxCell id="246" value="nights count" style="ellipse;whiteSpace=wrap;html=1;align=center;fillColor=#d5e8d4;strokeColor=#82b366;" parent="1" vertex="1">
                    <mxGeometry x="416.24" y="597.5" width="93.75" height="37.5" as="geometry"/>
                </mxCell>
                <mxCell id="247" value="" style="endArrow=none;html=1;rounded=0;entryX=1;entryY=0.5;entryDx=0;entryDy=0;exitX=0;exitY=0.5;exitDx=0;exitDy=0;" parent="1" source="8" target="246" edge="1">
                    <mxGeometry relative="1" as="geometry">
                        <mxPoint x="630" y="560" as="sourcePoint"/>
                        <mxPoint x="529" y="611" as="targetPoint"/>
                    </mxGeometry>
                </mxCell>
                <mxCell id="248" value="seat count" style="ellipse;whiteSpace=wrap;html=1;align=center;fillColor=#d5e8d4;strokeColor=#82b366;" parent="1" vertex="1">
                    <mxGeometry x="416.25" y="640" width="93.75" height="37.5" as="geometry"/>
                </mxCell>
                <mxCell id="249" value="" style="endArrow=none;html=1;rounded=0;entryX=1;entryY=0.5;entryDx=0;entryDy=0;exitX=0;exitY=0.5;exitDx=0;exitDy=0;" parent="1" source="8" target="248" edge="1">
                    <mxGeometry relative="1" as="geometry">
                        <mxPoint x="630" y="560" as="sourcePoint"/>
                        <mxPoint x="529" y="659" as="targetPoint"/>
                    </mxGeometry>
                </mxCell>
                <mxCell id="255" value="Booking_Status_History" style="shape=ext;margin=3;double=1;whiteSpace=wrap;html=1;align=center;fillColor=#f5f5f5;strokeColor=#666666;fontColor=#333333;" parent="1" vertex="1">
                    <mxGeometry x="621.88" y="406.25" width="156.25" height="62.5" as="geometry"/>
                </mxCell>
                <mxCell id="256" value="has" style="shape=rhombus;perimeter=rhombusPerimeter;whiteSpace=wrap;html=1;align=center;rotation=0;" parent="1" vertex="1">
                    <mxGeometry x="815" y="420" width="70" height="35" as="geometry"/>
                </mxCell>
                <mxCell id="257" value="" style="endArrow=none;html=1;rounded=0;exitX=0;exitY=0.5;exitDx=0;exitDy=0;entryX=1;entryY=0.25;entryDx=0;entryDy=0;" parent="1" source="256" target="255" edge="1">
                    <mxGeometry relative="1" as="geometry">
                        <mxPoint x="868" y="520" as="sourcePoint"/>
                        <mxPoint x="730" y="540" as="targetPoint"/>
                    </mxGeometry>
                </mxCell>
                <mxCell id="258" value="" style="endArrow=none;html=1;rounded=0;exitX=0;exitY=0.5;exitDx=0;exitDy=0;entryX=1;entryY=0.5;entryDx=0;entryDy=0;" parent="1" source="7" target="256" edge="1">
                    <mxGeometry relative="1" as="geometry">
                        <mxPoint x="830" y="448" as="sourcePoint"/>
                        <mxPoint x="816" y="441" as="targetPoint"/>
                    </mxGeometry>
                </mxCell>
                <mxCell id="259" value="n" style="text;html=1;align=center;verticalAlign=middle;whiteSpace=wrap;rounded=0;" parent="1" vertex="1">
                    <mxGeometry x="770" y="400" width="40" height="20" as="geometry"/>
                </mxCell>
                <mxCell id="260" value="1" style="text;html=1;align=center;verticalAlign=middle;whiteSpace=wrap;rounded=0;" parent="1" vertex="1">
                    <mxGeometry x="910" y="385" width="60" height="30" as="geometry"/>
                </mxCell>
                <mxCell id="261" value="BookingHistoryId" style="ellipse;whiteSpace=wrap;html=1;align=center;fontStyle=4;fillColor=#f5f5f5;strokeColor=#666666;fontColor=#333333;" parent="1" vertex="1">
                    <mxGeometry x="425.62" y="270" width="120" height="42.5" as="geometry"/>
                </mxCell>
                <mxCell id="267" value="" style="endArrow=none;html=1;rounded=0;exitX=0.5;exitY=1;exitDx=0;exitDy=0;entryX=0;entryY=0;entryDx=0;entryDy=0;" parent="1" source="261" target="255" edge="1">
                    <mxGeometry relative="1" as="geometry">
                        <mxPoint x="816" y="281" as="sourcePoint"/>
                        <mxPoint x="865" y="343" as="targetPoint"/>
                    </mxGeometry>
                </mxCell>
                <mxCell id="268" value="status" style="ellipse;whiteSpace=wrap;html=1;align=center;fillColor=#f5f5f5;strokeColor=#666666;fontColor=#333333;" parent="1" vertex="1">
                    <mxGeometry x="573.13" y="280" width="93.75" height="37.5" as="geometry"/>
                </mxCell>
                <mxCell id="269" value="" style="endArrow=none;html=1;rounded=0;exitX=0.5;exitY=1;exitDx=0;exitDy=0;entryX=0;entryY=0;entryDx=0;entryDy=0;" parent="1" source="268" target="255" edge="1">
                    <mxGeometry relative="1" as="geometry">
                        <mxPoint x="496" y="323" as="sourcePoint"/>
                        <mxPoint x="632" y="416" as="targetPoint"/>
                    </mxGeometry>
                </mxCell>
                <mxCell id="270" value="changed_at" style="ellipse;whiteSpace=wrap;html=1;align=center;fillColor=#f5f5f5;strokeColor=#666666;fontColor=#333333;" parent="1" vertex="1">
                    <mxGeometry x="676.25" y="297.5" width="93.75" height="37.5" as="geometry"/>
                </mxCell>
                <mxCell id="271" value="" style="endArrow=none;html=1;rounded=0;exitX=0.5;exitY=1;exitDx=0;exitDy=0;entryX=0;entryY=0;entryDx=0;entryDy=0;" parent="1" source="270" target="255" edge="1">
                    <mxGeometry relative="1" as="geometry">
                        <mxPoint x="630" y="328" as="sourcePoint"/>
                        <mxPoint x="632" y="416" as="targetPoint"/>
                    </mxGeometry>
                </mxCell>
                <mxCell id="277" value="Notification_History" style="shape=ext;margin=3;double=1;whiteSpace=wrap;html=1;align=center;fillColor=#fff2cc;strokeColor=#d6b656;" parent="1" vertex="1">
                    <mxGeometry x="1501.87" y="307.54" width="156.25" height="62.5" as="geometry"/>
                </mxCell>
                <mxCell id="278" value="" style="endArrow=none;html=1;rounded=0;exitX=1;exitY=0.5;exitDx=0;exitDy=0;entryX=0;entryY=0.5;entryDx=0;entryDy=0;" parent="1" source="2" target="279" edge="1">
                    <mxGeometry relative="1" as="geometry">
                        <mxPoint x="1303" y="390" as="sourcePoint"/>
                        <mxPoint x="1340" y="320" as="targetPoint"/>
                        <Array as="points"/>
                    </mxGeometry>
                </mxCell>
                <mxCell id="279" value="has" style="shape=rhombus;perimeter=rhombusPerimeter;whiteSpace=wrap;html=1;align=center;rotation=15;" parent="1" vertex="1">
                    <mxGeometry x="1355" y="267.54" width="80" height="40" as="geometry"/>
                </mxCell>
                <mxCell id="280" value="" style="endArrow=none;html=1;rounded=0;exitX=1;exitY=0.5;exitDx=0;exitDy=0;entryX=0;entryY=0;entryDx=0;entryDy=0;" parent="1" source="279" target="277" edge="1">
                    <mxGeometry relative="1" as="geometry">
                        <mxPoint x="1334" y="390" as="sourcePoint"/>
                        <mxPoint x="1375" y="319" as="targetPoint"/>
                        <Array as="points"/>
                    </mxGeometry>
                </mxCell>
                <mxCell id="281" value="n" style="text;html=1;align=center;verticalAlign=middle;whiteSpace=wrap;rounded=0;" parent="1" vertex="1">
                    <mxGeometry x="1462.5" y="287.54" width="45" height="22.5" as="geometry"/>
                </mxCell>
                <mxCell id="282" value="1" style="text;html=1;align=center;verticalAlign=middle;whiteSpace=wrap;rounded=0;" parent="1" vertex="1">
                    <mxGeometry x="1190" y="236.34" width="60" height="30" as="geometry"/>
                </mxCell>
                <mxCell id="283" value="&lt;span style=&quot;color: rgb(0, 0, 0);&quot;&gt;Notification&lt;/span&gt;HistoryId" style="ellipse;whiteSpace=wrap;html=1;align=center;fontStyle=4;fillColor=#fff2cc;strokeColor=#d6b656;" parent="1" vertex="1">
                    <mxGeometry x="1775" y="335" width="120" height="42.5" as="geometry"/>
                </mxCell>
                <mxCell id="284" value="" style="endArrow=none;html=1;rounded=0;entryX=1;entryY=0;entryDx=0;entryDy=0;exitX=0;exitY=0.5;exitDx=0;exitDy=0;" parent="1" source="283" target="277" edge="1">
                    <mxGeometry relative="1" as="geometry">
                        <mxPoint x="1795" y="300" as="sourcePoint"/>
                        <mxPoint x="1640" y="245" as="targetPoint"/>
                        <Array as="points"/>
                    </mxGeometry>
                </mxCell>
                <mxCell id="285" value="message" style="ellipse;whiteSpace=wrap;html=1;align=center;fillColor=#fff2cc;strokeColor=#d6b656;" parent="1" vertex="1">
                    <mxGeometry x="1785" y="390" width="93.75" height="37.5" as="geometry"/>
                </mxCell>
                <mxCell id="286" value="" style="endArrow=none;html=1;rounded=0;entryX=1;entryY=0;entryDx=0;entryDy=0;exitX=0;exitY=0.5;exitDx=0;exitDy=0;" parent="1" source="285" target="277" edge="1">
                    <mxGeometry relative="1" as="geometry">
                        <mxPoint x="1730" y="354" as="sourcePoint"/>
                        <mxPoint x="1668" y="318" as="targetPoint"/>
                        <Array as="points"/>
                    </mxGeometry>
                </mxCell>
                <mxCell id="287" value="send_at" style="ellipse;whiteSpace=wrap;html=1;align=center;fillColor=#fff2cc;strokeColor=#d6b656;" parent="1" vertex="1">
                    <mxGeometry x="1788.13" y="442.5" width="93.75" height="37.5" as="geometry"/>
                </mxCell>
                <mxCell id="288" value="" style="endArrow=none;html=1;rounded=0;entryX=1;entryY=0;entryDx=0;entryDy=0;exitX=0;exitY=0.5;exitDx=0;exitDy=0;" parent="1" source="287" target="277" edge="1">
                    <mxGeometry relative="1" as="geometry">
                        <mxPoint x="1795" y="419" as="sourcePoint"/>
                        <mxPoint x="1668" y="318" as="targetPoint"/>
                        <Array as="points"/>
                    </mxGeometry>
                </mxCell>
                <mxCell id="289" value="Payment_History&amp;nbsp;" style="shape=ext;margin=3;double=1;whiteSpace=wrap;html=1;align=center;fillColor=#d5e8d4;strokeColor=#82b366;" parent="1" vertex="1">
                    <mxGeometry x="676.2499999999999" y="23.75" width="156.25" height="62.5" as="geometry"/>
                </mxCell>
                <mxCell id="290" value="has" style="shape=rhombus;perimeter=rhombusPerimeter;whiteSpace=wrap;html=1;align=center;rotation=-90;" parent="1" vertex="1">
                    <mxGeometry x="719.38" y="137.5" width="70" height="35" as="geometry"/>
                </mxCell>
                <mxCell id="292" value="" style="endArrow=none;html=1;rounded=0;exitX=0;exitY=0.5;exitDx=0;exitDy=0;entryX=0.5;entryY=0;entryDx=0;entryDy=0;" parent="1" source="290" target="6" edge="1">
                    <mxGeometry relative="1" as="geometry">
                        <mxPoint x="816" y="241" as="sourcePoint"/>
                        <mxPoint x="888" y="255" as="targetPoint"/>
                    </mxGeometry>
                </mxCell>
                <mxCell id="293" value="" style="endArrow=none;html=1;rounded=0;exitX=0.5;exitY=1;exitDx=0;exitDy=0;entryX=1;entryY=0.5;entryDx=0;entryDy=0;" parent="1" source="289" target="290" edge="1">
                    <mxGeometry relative="1" as="geometry">
                        <mxPoint x="782" y="203" as="sourcePoint"/>
                        <mxPoint x="791" y="241" as="targetPoint"/>
                    </mxGeometry>
                </mxCell>
                <mxCell id="294" value="n" style="text;html=1;align=center;verticalAlign=middle;whiteSpace=wrap;rounded=0;" parent="1" vertex="1">
                    <mxGeometry x="710" y="86.25" width="60" height="30" as="geometry"/>
                </mxCell>
                <mxCell id="295" value="1" style="text;html=1;align=center;verticalAlign=middle;whiteSpace=wrap;rounded=0;" parent="1" vertex="1">
                    <mxGeometry x="716.88" y="207.59000000000003" width="60" height="30" as="geometry"/>
                </mxCell>
                <mxCell id="296" value="&lt;span style=&quot;color: rgb(0, 0, 0);&quot;&gt;Payment&lt;/span&gt;HistoryId" style="ellipse;whiteSpace=wrap;html=1;align=center;fontStyle=4;fillColor=#d5e8d4;strokeColor=#82b366;" parent="1" vertex="1">
                    <mxGeometry x="490" y="7.5" width="120" height="42.5" as="geometry"/>
                </mxCell>
                <mxCell id="297" value="" style="endArrow=none;html=1;rounded=0;exitX=0;exitY=0;exitDx=0;exitDy=0;entryX=1;entryY=0.5;entryDx=0;entryDy=0;" parent="1" source="289" target="296" edge="1">
                    <mxGeometry relative="1" as="geometry">
                        <mxPoint x="764" y="200" as="sourcePoint"/>
                        <mxPoint x="766" y="241" as="targetPoint"/>
                    </mxGeometry>
                </mxCell>
                <mxCell id="298" value="status" style="ellipse;whiteSpace=wrap;html=1;align=center;fillColor=#d5e8d4;strokeColor=#82b366;" parent="1" vertex="1">
                    <mxGeometry x="490" y="62.5" width="93.75" height="37.5" as="geometry"/>
                </mxCell>
                <mxCell id="299" value="" style="endArrow=none;html=1;rounded=0;exitX=0;exitY=0;exitDx=0;exitDy=0;entryX=1;entryY=0.5;entryDx=0;entryDy=0;" parent="1" source="289" target="298" edge="1">
                    <mxGeometry relative="1" as="geometry">
                        <mxPoint x="686" y="34" as="sourcePoint"/>
                        <mxPoint x="620" y="39" as="targetPoint"/>
                    </mxGeometry>
                </mxCell>
                <mxCell id="300" value="changed_at" style="ellipse;whiteSpace=wrap;html=1;align=center;fillColor=#d5e8d4;strokeColor=#82b366;" parent="1" vertex="1">
                    <mxGeometry x="490" y="111.16" width="93.75" height="37.5" as="geometry"/>
                </mxCell>
                <mxCell id="301" value="" style="endArrow=none;html=1;rounded=0;exitX=0;exitY=0;exitDx=0;exitDy=0;entryX=1;entryY=0.5;entryDx=0;entryDy=0;" parent="1" source="289" target="300" edge="1">
                    <mxGeometry relative="1" as="geometry">
                        <mxPoint x="686" y="34" as="sourcePoint"/>
                        <mxPoint x="607" y="99" as="targetPoint"/>
                    </mxGeometry>
                </mxCell>
                <mxCell id="302" value="" style="endArrow=none;html=1;rounded=0;entryX=0.75;entryY=0;entryDx=0;entryDy=0;exitX=0;exitY=0.5;exitDx=0;exitDy=0;" parent="1" source="303" target="2" edge="1">
                    <mxGeometry relative="1" as="geometry">
                        <mxPoint x="1160" y="140" as="sourcePoint"/>
                        <mxPoint x="1190" y="110" as="targetPoint"/>
                        <Array as="points"/>
                    </mxGeometry>
                </mxCell>
                <mxCell id="303" value="has" style="shape=rhombus;perimeter=rhombusPerimeter;whiteSpace=wrap;html=1;align=center;rotation=-64;" parent="1" vertex="1">
                    <mxGeometry x="1193.13" y="130.00000000000003" width="80" height="40" as="geometry"/>
                </mxCell>
                <mxCell id="304" value="User_Login_History" style="shape=ext;margin=3;double=1;whiteSpace=wrap;html=1;align=center;fillColor=#f8cecc;strokeColor=#b85450;" parent="1" vertex="1">
                    <mxGeometry x="1313.75" y="70" width="156.25" height="62.5" as="geometry"/>
                </mxCell>
                <mxCell id="305" value="" style="endArrow=none;html=1;rounded=0;entryX=1;entryY=0.5;entryDx=0;entryDy=0;exitX=0;exitY=1;exitDx=0;exitDy=0;" parent="1" source="304" target="303" edge="1">
                    <mxGeometry relative="1" as="geometry">
                        <mxPoint x="1182" y="146" as="sourcePoint"/>
                        <mxPoint x="1115" y="240" as="targetPoint"/>
                        <Array as="points"/>
                    </mxGeometry>
                </mxCell>
                <mxCell id="306" value="n" style="text;html=1;align=center;verticalAlign=middle;whiteSpace=wrap;rounded=0;" parent="1" vertex="1">
                    <mxGeometry x="1243.75" y="83.77000000000001" width="45" height="22.46" as="geometry"/>
                </mxCell>
                <mxCell id="307" value="1" style="text;html=1;align=center;verticalAlign=middle;whiteSpace=wrap;rounded=0;" parent="1" vertex="1">
                    <mxGeometry x="1126.25" y="195" width="60" height="30" as="geometry"/>
                </mxCell>
                <mxCell id="310" value="&lt;span style=&quot;color: rgb(0, 0, 0);&quot;&gt;UserLogin&lt;/span&gt;HistoryId" style="ellipse;whiteSpace=wrap;html=1;align=center;fontStyle=4;fillColor=#f8cecc;strokeColor=#b85450;" parent="1" vertex="1">
                    <mxGeometry x="1480.6399999999999" y="13.75" width="120" height="42.5" as="geometry"/>
                </mxCell>
                <mxCell id="311" value="" style="endArrow=none;html=1;rounded=0;entryX=1;entryY=0;entryDx=0;entryDy=0;exitX=0;exitY=0.5;exitDx=0;exitDy=0;" parent="1" source="310" target="304" edge="1">
                    <mxGeometry relative="1" as="geometry">
                        <mxPoint x="1520" y="130" as="sourcePoint"/>
                        <mxPoint x="1399" y="193" as="targetPoint"/>
                        <Array as="points"/>
                    </mxGeometry>
                </mxCell>
                <mxCell id="312" value="loginTime" style="ellipse;whiteSpace=wrap;html=1;align=center;fillColor=#f8cecc;strokeColor=#b85450;" parent="1" vertex="1">
                    <mxGeometry x="1390" width="75" height="30" as="geometry"/>
                </mxCell>
                <mxCell id="313" value="" style="endArrow=none;html=1;rounded=0;entryX=1;entryY=0;entryDx=0;entryDy=0;exitX=0.5;exitY=1;exitDx=0;exitDy=0;" parent="1" source="312" target="304" edge="1">
                    <mxGeometry relative="1" as="geometry">
                        <mxPoint x="1491" y="45" as="sourcePoint"/>
                        <mxPoint x="1455" y="58" as="targetPoint"/>
                        <Array as="points"/>
                    </mxGeometry>
                </mxCell>
                <mxCell id="314" value="" style="endArrow=none;html=1;rounded=0;entryX=1;entryY=0;entryDx=0;entryDy=0;exitX=0.5;exitY=1;exitDx=0;exitDy=0;" parent="1" source="315" target="304" edge="1">
                    <mxGeometry relative="1" as="geometry">
                        <mxPoint x="1411" y="45" as="sourcePoint"/>
                        <mxPoint x="1326" y="48" as="targetPoint"/>
                        <Array as="points"/>
                    </mxGeometry>
                </mxCell>
                <mxCell id="315" value="ipAddress&amp;nbsp;" style="ellipse;whiteSpace=wrap;html=1;align=center;fillColor=#f8cecc;strokeColor=#b85450;" parent="1" vertex="1">
                    <mxGeometry x="1310" width="75" height="30" as="geometry"/>
                </mxCell>
                <mxCell id="317" value="ProfilePIcture" style="ellipse;whiteSpace=wrap;html=1;align=center;fillColor=#d80073;fontColor=#ffffff;strokeColor=#A50040;" parent="1" vertex="1">
                    <mxGeometry x="1075.63" width="75" height="30" as="geometry"/>
                </mxCell>
                <mxCell id="318" value="" style="endArrow=none;html=1;rounded=0;entryX=0.5;entryY=1;entryDx=0;entryDy=0;exitX=0;exitY=0;exitDx=0;exitDy=0;" parent="1" source="2" target="317" edge="1">
                    <mxGeometry relative="1" as="geometry">
                        <mxPoint x="1090" y="240" as="sourcePoint"/>
                        <mxPoint x="1053" y="54" as="targetPoint"/>
                        <Array as="points"/>
                    </mxGeometry>
                </mxCell>
                <mxCell id="320" value="LastName" style="ellipse;whiteSpace=wrap;html=1;align=center;fillColor=#e51400;fontColor=#ffffff;strokeColor=#B20000;" parent="1" vertex="1">
                    <mxGeometry x="1830" y="50" width="75" height="30" as="geometry"/>
                </mxCell>
                <mxCell id="321" value="" style="endArrow=none;html=1;rounded=0;entryX=1;entryY=0;entryDx=0;entryDy=0;exitX=0;exitY=0.5;exitDx=0;exitDy=0;" parent="1" source="320" target="33" edge="1">
                    <mxGeometry relative="1" as="geometry">
                        <mxPoint x="1814" y="39" as="sourcePoint"/>
                        <mxPoint x="1645" y="130" as="targetPoint"/>
                        <Array as="points"/>
                    </mxGeometry>
                </mxCell>
                <mxCell id="323" style="edgeStyle=none;html=1;exitX=0.25;exitY=1;exitDx=0;exitDy=0;entryX=0.5;entryY=1;entryDx=0;entryDy=0;" parent="1" source="307" target="307" edge="1">
                    <mxGeometry relative="1" as="geometry"/>
                </mxCell>
                <mxCell id="325" value="departureDateTime" style="ellipse;whiteSpace=wrap;html=1;align=center;fillColor=#1ba1e2;strokeColor=#006EAF;fontColor=#ffffff;" vertex="1" parent="1">
                    <mxGeometry x="901.67" y="522.5" width="103.33" height="40" as="geometry"/>
                </mxCell>
                <mxCell id="326" value="" style="endArrow=none;html=1;rounded=0;entryX=0;entryY=0.5;entryDx=0;entryDy=0;exitX=1;exitY=0.5;exitDx=0;exitDy=0;" edge="1" parent="1" source="325" target="3">
                    <mxGeometry relative="1" as="geometry">
                        <mxPoint x="1015" y="559" as="sourcePoint"/>
                        <mxPoint x="1080" y="510" as="targetPoint"/>
                    </mxGeometry>
                </mxCell>
                <mxCell id="327" value="arrivalDateTime" style="ellipse;whiteSpace=wrap;html=1;align=center;fillColor=#1ba1e2;strokeColor=#006EAF;fontColor=#ffffff;" vertex="1" parent="1">
                    <mxGeometry x="875.83" y="570" width="103.33" height="40" as="geometry"/>
                </mxCell>
                <mxCell id="328" value="" style="endArrow=none;html=1;rounded=0;entryX=0;entryY=0.5;entryDx=0;entryDy=0;exitX=1;exitY=0.5;exitDx=0;exitDy=0;" edge="1" parent="1" source="327" target="3">
                    <mxGeometry relative="1" as="geometry">
                        <mxPoint x="991" y="581" as="sourcePoint"/>
                        <mxPoint x="1080" y="510" as="targetPoint"/>
                    </mxGeometry>
                </mxCell>
                <mxCell id="329" value="status&amp;nbsp;" style="ellipse;whiteSpace=wrap;html=1;align=center;fillColor=#1ba1e2;strokeColor=#006EAF;fontColor=#ffffff;" vertex="1" parent="1">
                    <mxGeometry x="864.38" y="612.5" width="93.75" height="37.5" as="geometry"/>
                </mxCell>
                <mxCell id="330" value="" style="endArrow=none;html=1;rounded=0;entryX=0;entryY=0.5;entryDx=0;entryDy=0;exitX=1;exitY=0.5;exitDx=0;exitDy=0;" edge="1" parent="1" source="329" target="3">
                    <mxGeometry relative="1" as="geometry">
                        <mxPoint x="989" y="600" as="sourcePoint"/>
                        <mxPoint x="1080" y="510" as="targetPoint"/>
                    </mxGeometry>
                </mxCell>
                <mxCell id="331" value="Flight class     " style="whiteSpace=wrap;html=1;align=center;fillColor=#cce5ff;strokeColor=#36393d;" vertex="1" parent="1">
                    <mxGeometry x="1660" y="580" width="125" height="50" as="geometry"/>
                </mxCell>
                <mxCell id="332" value="quantity" style="ellipse;whiteSpace=wrap;html=1;align=center;fillColor=#d5e8d4;strokeColor=#82b366;" vertex="1" parent="1">
                    <mxGeometry x="416.25" y="683.75" width="93.75" height="37.5" as="geometry"/>
                </mxCell>
                <mxCell id="333" value="" style="endArrow=none;html=1;rounded=0;entryX=1;entryY=0;entryDx=0;entryDy=0;exitX=0;exitY=0.5;exitDx=0;exitDy=0;" edge="1" parent="1" source="8" target="332">
                    <mxGeometry relative="1" as="geometry">
                        <mxPoint x="630" y="560" as="sourcePoint"/>
                        <mxPoint x="520" y="669" as="targetPoint"/>
                    </mxGeometry>
                </mxCell>
                <mxCell id="334" value="nights" style="ellipse;whiteSpace=wrap;html=1;align=center;fillColor=#d5e8d4;strokeColor=#82b366;" vertex="1" parent="1">
                    <mxGeometry x="416.25" y="726.25" width="93.75" height="37.5" as="geometry"/>
                </mxCell>
                <mxCell id="335" value="" style="endArrow=none;html=1;rounded=0;entryX=1;entryY=0.5;entryDx=0;entryDy=0;exitX=0;exitY=0.5;exitDx=0;exitDy=0;" edge="1" parent="1" source="8" target="334">
                    <mxGeometry relative="1" as="geometry">
                        <mxPoint x="630" y="560" as="sourcePoint"/>
                        <mxPoint x="507" y="699" as="targetPoint"/>
                    </mxGeometry>
                </mxCell>
                <mxCell id="336" value="price" style="ellipse;whiteSpace=wrap;html=1;align=center;fillColor=#d5e8d4;strokeColor=#82b366;" vertex="1" parent="1">
                    <mxGeometry x="416.24" y="772.5" width="93.75" height="37.5" as="geometry"/>
                </mxCell>
                <mxCell id="337" value="" style="endArrow=none;html=1;rounded=0;entryX=1;entryY=0.5;entryDx=0;entryDy=0;exitX=0;exitY=0.5;exitDx=0;exitDy=0;" edge="1" parent="1" source="8" target="336">
                    <mxGeometry relative="1" as="geometry">
                        <mxPoint x="630" y="560" as="sourcePoint"/>
                        <mxPoint x="520" y="755" as="targetPoint"/>
                    </mxGeometry>
                </mxCell>
            </root>
        </mxGraphModel>
    </diagram>
</mxfile>